<?xml version="1.0" encoding="UTF-8"?>
<svg width="135px" height="29px" viewBox="0 0 135 29" version="1.1" xmlns="http://www.w3.org/2000/svg" xmlns:xlink="http://www.w3.org/1999/xlink">
    <title>Group@3x</title>
    <defs>
        <rect id="path-1" x="0" y="0" width="1920" height="60"></rect>
        <filter x="-0.0%" y="-0.8%" width="100.1%" height="103.3%" filterUnits="objectBoundingBox" id="filter-2">
            <feOffset dx="0" dy="1" in="SourceAlpha" result="shadowOffsetOuter1"></feOffset>
            <feComposite in="shadowOffsetOuter1" in2="SourceAlpha" operator="out" result="shadowOffsetOuter1"></feComposite>
            <feColorMatrix values="0 0 0 0 0.968627451   0 0 0 0 0.97254902   0 0 0 0 0.976470588  0 0 0 1 0" type="matrix" in="shadowOffsetOuter1"></feColorMatrix>
        </filter>
        <linearGradient x1="96.6581212%" y1="72.0157187%" x2="34.6122173%" y2="17.5540123%" id="linearGradient-3">
            <stop stop-color="#BDC3EA" offset="0%"></stop>
            <stop stop-color="#E7E2EE" offset="100%"></stop>
        </linearGradient>
        <linearGradient x1="4.4891764%" y1="100%" x2="95.5108236%" y2="0%" id="linearGradient-4">
            <stop stop-color="#1D97C7" offset="0%"></stop>
            <stop stop-color="#5178F0" offset="52.7845228%"></stop>
            <stop stop-color="#875FF3" offset="100%"></stop>
        </linearGradient>
        <linearGradient x1="35.1977394%" y1="92.2519305%" x2="88.961578%" y2="18.8497326%" id="linearGradient-5">
            <stop stop-color="#00B7FF" offset="0%"></stop>
            <stop stop-color="#FFFFFF" offset="52.7845228%"></stop>
            <stop stop-color="#5B1EFF" offset="100%"></stop>
            <stop stop-color="#5B1EFF" offset="100%"></stop>
        </linearGradient>
    </defs>
    <g id="Page-2" stroke="none" stroke-width="1" fill="none" fill-rule="evenodd">
        <g id="Web_首页3" transform="translate(-360.000000, -127.000000)">
            <g id="导航栏_无搜索框" transform="translate(0.000000, 111.000000)">
                <g id="nav-bg">
                    <use fill="black" fill-opacity="1" filter="url(#filter-2)" xlink:href="#path-1"></use>
                    <use fill-opacity="0.596454327" fill="#FFFFFF" fill-rule="evenodd" xlink:href="#path-1"></use>
                </g>
                <g id="Group" transform="translate(360.000000, 16.000000)">
                    <g id="StarScan" transform="translate(46.000000, 6.000000)" fill="#080A32" fill-rule="nonzero">
                        <path d="M5.86055711,2.44324324 C5.07730344,2.44324324 4.42459206,2.60900901 3.90242294,2.94054054 C3.38025383,3.27207207 3.11916928,3.73333333 3.11916928,4.32432432 C3.11916928,4.77117117 3.30773034,5.13153153 3.68485248,5.40540541 C4.06197462,5.67927928 4.61315312,5.90990991 5.338388,6.0972973 C5.52694907,6.15495495 5.86418329,6.24144144 6.35009065,6.35675676 C6.83599802,6.47207207 7.22037251,6.56576577 7.50321411,6.63783784 C7.78605571,6.70990991 8.15955167,6.82162162 8.62370199,6.97297297 C9.08785232,7.12432432 9.46497445,7.27567568 9.7550684,7.42702703 C10.0451624,7.57837838 10.3606395,7.77657658 10.7014999,8.02162162 C11.0423603,8.26666667 11.3106972,8.52612613 11.5065106,8.8 C11.702324,9.07387387 11.8691281,9.40900901 12.0069227,9.80540541 C12.1447173,10.2018018 12.2136146,10.6306306 12.2136146,11.0918919 C12.2136146,12.5189189 11.6696885,13.6936937 10.5818362,14.6162162 C9.49398385,15.5387387 8.02175705,16 6.16515576,16 C4.87423768,16 3.7102357,15.7657658 2.67314983,15.2972973 C1.63606395,14.8288288 0.798417669,14.1765766 0.160210977,13.3405405 C-0.100873578,12.9945946 -0.0428547882,12.6918919 0.334267348,12.4324324 L1.4873908,11.6540541 C1.83550354,11.4234234 2.14010219,11.4810811 2.40118675,11.827027 C3.31498269,12.9801802 4.60590077,13.5567568 6.27394099,13.5567568 C7.21674633,13.5567568 7.96736443,13.3585586 8.52579529,12.9621622 C9.08422614,12.5657658 9.36344157,12.036036 9.36344157,11.372973 C9.36344157,11.0846847 9.29454426,10.8288288 9.15674963,10.6054054 C9.018955,10.381982 8.87028185,10.2018018 8.71073018,10.0648649 C8.55117851,9.92792793 8.2828416,9.79459459 7.90571947,9.66486486 C7.52859733,9.53513514 7.22399868,9.44504505 6.99192352,9.39459459 C6.75984836,9.34414414 6.38997857,9.26126126 5.88231416,9.14594595 C5.0700511,8.98738739 4.37745179,8.81441441 3.80451624,8.62702703 C3.23158068,8.43963964 2.64776661,8.17297297 2.05307401,7.82702703 C1.45838141,7.48108108 1.00510961,7.03063063 0.693258612,6.47567568 C0.381407615,5.92072072 0.225482116,5.26846847 0.225482116,4.51891892 C0.225482116,3.10630631 0.762155925,2 1.83550354,1.2 C2.90885116,0.4 4.27229273,0 5.92582825,0 C8.27558925,0 10.1249382,0.771171171 11.4738751,2.31351351 C11.763969,2.64504505 11.7132026,2.94774775 11.3215757,3.22162162 L10.2554805,3.95675676 C9.92187242,4.18738739 9.63177847,4.15855856 9.38519862,3.87027027 C8.50041207,2.91891892 7.32553156,2.44324324 5.86055711,2.44324324 Z" id="Path"></path>
                        <path d="M21.0679084,14.8324324 C21.1839459,15.2504505 21.060656,15.5243243 20.6980386,15.6540541 C20.1468601,15.8702703 19.501401,15.9783784 18.7616614,15.9783784 C16.4554145,15.9783784 15.3022911,14.8108108 15.3022911,12.4756757 L15.3022911,6.50810811 L13.866326,6.50810811 C13.4311851,6.50810811 13.2136146,6.29189189 13.2136146,5.85945946 L13.2136146,4.95135135 C13.2136146,4.51891892 13.4311851,4.3027027 13.866326,4.3027027 L15.3022911,4.3027027 L15.3022911,0.92972973 C15.3022911,0.497297297 15.5198615,0.281081081 15.9550025,0.281081081 L17.4127246,0.281081081 C17.8478655,0.281081081 18.065436,0.497297297 18.065436,0.92972973 L18.065436,4.3027027 L20.2411406,4.3027027 C20.6762815,4.3027027 20.893852,4.51891892 20.893852,4.95135135 L20.893852,5.85945946 C20.893852,6.29189189 20.6762815,6.50810811 20.2411406,6.50810811 L18.065436,6.50810811 L18.065436,12.0432432 C18.065436,13.0954955 18.5150816,13.6216216 19.4143728,13.6216216 C19.646448,13.6216216 19.8495138,13.5927928 20.0235701,13.5351351 C20.4442064,13.4198198 20.7052909,13.5495495 20.8068238,13.9243243 L21.0679084,14.8324324 Z" id="Path"></path>
                        <path d="M30.0296687,15.7189189 C29.5945278,15.7189189 29.3769573,15.5171171 29.3769573,15.1135135 L29.3769573,14.5081081 C28.622713,15.4882883 27.5276084,15.9783784 26.0916433,15.9783784 C24.8877534,15.9783784 23.923191,15.6684685 23.1979562,15.0486486 C22.4727213,14.4288288 22.1101038,13.563964 22.1101038,12.4540541 C22.1101038,12.0072072 22.1717488,11.6036036 22.2950387,11.2432432 C22.4183287,10.8828829 22.5960112,10.5873874 22.8280864,10.3567568 C23.0601615,10.1261261 23.299489,9.92792793 23.5460689,9.76216216 C23.7926488,9.5963964 24.0899951,9.45945946 24.4381078,9.35135135 C24.7862205,9.24324324 25.0799407,9.16396396 25.3192682,9.11351351 C25.5585957,9.06306306 25.8378111,9.01621622 26.1569145,8.97297297 C27.4623372,8.78558559 28.2746003,8.61261261 28.5937036,8.45405405 C29.0143399,8.25225225 29.224658,7.94954955 29.224658,7.54594595 C29.224658,7.11351351 29.0252184,6.8036036 28.6263392,6.61621622 C28.22746,6.42882883 27.7451788,6.33513514 27.1794956,6.33513514 C26.1641668,6.33513514 25.1633427,6.58018018 24.1770232,7.07027027 C23.7708917,7.27207207 23.4735454,7.18558559 23.2849843,6.81081081 L22.8716005,5.96756757 C22.6830394,5.56396396 22.7700676,5.26846847 23.132685,5.08108108 C24.4236031,4.38918919 25.8450635,4.04324324 27.3970661,4.04324324 C28.8185265,4.04324324 29.9390143,4.34954955 30.7585298,4.96216216 C31.5780452,5.57477477 31.9878029,6.52252252 31.9878029,7.80540541 L31.9878029,15.0702703 C31.9878029,15.5027027 31.7702324,15.7189189 31.3350915,15.7189189 L30.0296687,15.7189189 Z M29.224658,10.0756757 C28.9200593,10.3063063 28.0860392,10.5369369 26.7225977,10.7675676 C26.1134004,10.8828829 25.64925,11.045045 25.3301467,11.2540541 C25.0110433,11.4630631 24.8514917,11.8198198 24.8514917,12.3243243 C24.8514917,12.8144144 25.0146695,13.1855856 25.3410252,13.4378378 C25.6673809,13.6900901 26.106148,13.8162162 26.6573265,13.8162162 C27.3825614,13.8162162 27.9917587,13.6108108 28.4849184,13.2 C28.9780781,12.7891892 29.224658,12.1801802 29.224658,11.372973 L29.224658,10.0756757 Z" id="Shape"></path>
                        <path d="M41.0370859,6.27027027 C40.9645624,6.64504505 40.7034778,6.78918919 40.2538322,6.7027027 C40.0362617,6.65945946 39.8041866,6.63783784 39.5576067,6.63783784 C38.730839,6.63783784 38.0563705,6.95855856 37.5342014,7.6 C37.0120323,8.24144144 36.7509478,9.16756757 36.7509478,10.3783784 L36.7509478,15.0702703 C36.7509478,15.5027027 36.5333773,15.7189189 36.0982364,15.7189189 L34.6405143,15.7189189 C34.2053733,15.7189189 33.9878029,15.5027027 33.9878029,15.0702703 L33.9878029,4.95135135 C33.9878029,4.51891892 34.2053733,4.3027027 34.6405143,4.3027027 L36.0982364,4.3027027 C36.5333773,4.3027027 36.7509478,4.51891892 36.7509478,4.95135135 L36.7509478,5.81621622 C37.0990605,5.28288288 37.5487061,4.86126126 38.0998846,4.55135135 C38.6510631,4.24144144 39.2457557,4.08648649 39.8839624,4.08648649 C40.2030658,4.08648649 40.5294215,4.13693694 40.8630295,4.23783784 C41.2111422,4.33873874 41.3489369,4.60540541 41.2764134,5.03783784 L41.0370859,6.27027027 Z" id="Path"></path>
                        <path d="M48.1557266,2.44324324 C47.3724729,2.44324324 46.7197615,2.60900901 46.1975924,2.94054054 C45.6754233,3.27207207 45.4143387,3.73333333 45.4143387,4.32432432 C45.4143387,4.77117117 45.6028998,5.13153153 45.9800219,5.40540541 C46.3571441,5.67927928 46.9083226,5.90990991 47.6335575,6.0972973 C47.8221185,6.15495495 48.1593527,6.24144144 48.6452601,6.35675676 C49.1311675,6.47207207 49.515542,6.56576577 49.7983836,6.63783784 C50.0812252,6.70990991 50.4547211,6.82162162 50.9188715,6.97297297 C51.3830218,7.12432432 51.7601439,7.27567568 52.0502379,7.42702703 C52.3403318,7.57837838 52.655809,7.77657658 52.9966694,8.02162162 C53.3375298,8.26666667 53.6058667,8.52612613 53.8016801,8.8 C53.9974935,9.07387387 54.1642975,9.40900901 54.3020922,9.80540541 C54.4398868,10.2018018 54.5087841,10.6306306 54.5087841,11.0918919 C54.5087841,12.5189189 53.9648579,13.6936937 52.8770056,14.6162162 C51.7891533,15.5387387 50.3169265,16 48.4603252,16 C47.1694071,16 46.0054052,15.7657658 44.9683193,15.2972973 C43.9312334,14.8288288 43.0935871,14.1765766 42.4553804,13.3405405 C42.1942959,12.9945946 42.2523147,12.6918919 42.6294368,12.4324324 L43.7825603,11.6540541 C44.130673,11.4234234 44.4352717,11.4810811 44.6963562,11.827027 C45.6101522,12.9801802 46.9010702,13.5567568 48.5691105,13.5567568 C49.5119158,13.5567568 50.2625339,13.3585586 50.8209647,12.9621622 C51.3793956,12.5657658 51.658611,12.036036 51.658611,11.372973 C51.658611,11.0846847 51.5897137,10.8288288 51.4519191,10.6054054 C51.3141245,10.381982 51.1654513,10.2018018 51.0058996,10.0648649 C50.846348,9.92792793 50.5780111,9.79459459 50.2008889,9.66486486 C49.8237668,9.53513514 49.5191681,9.44504505 49.287093,9.39459459 C49.0550178,9.34414414 48.685148,9.26126126 48.1774836,9.14594595 C47.3652206,8.98738739 46.6726212,8.81441441 46.0996857,8.62702703 C45.5267501,8.43963964 44.9429361,8.17297297 44.3482435,7.82702703 C43.7535509,7.48108108 43.3002791,7.03063063 42.9884281,6.47567568 C42.6765771,5.92072072 42.5206516,5.26846847 42.5206516,4.51891892 C42.5206516,3.10630631 43.0573254,2 44.130673,1.2 C45.2040206,0.4 46.5674622,0 48.2209977,0 C50.5707587,0 52.4201076,0.771171171 53.7690445,2.31351351 C54.0591385,2.64504505 54.008372,2.94774775 53.6167452,3.22162162 L52.5506499,3.95675676 C52.2170419,4.18738739 51.9269479,4.15855856 51.6803681,3.87027027 C50.7955815,2.91891892 49.620701,2.44324324 48.1557266,2.44324324 Z" id="Path"></path>
                        <path d="M64.5597154,7.63243243 C64.2261073,7.86306306 63.9215087,7.80540541 63.6459194,7.45945946 C63.0512268,6.78198198 62.3042349,6.44324324 61.4049436,6.44324324 C60.4911477,6.44324324 59.7659128,6.77117117 59.229239,7.42702703 C58.6925652,8.08288288 58.4242283,8.93693694 58.4242283,9.98918919 C58.4242283,11.0702703 58.6961914,11.9387387 59.2401175,12.5945946 C59.7840437,13.2504505 60.5201571,13.5783784 61.4484577,13.5783784 C62.347749,13.5783784 63.1237503,13.2396396 63.7764617,12.5621622 C64.095565,12.245045 64.4001637,12.2162162 64.6902576,12.4756757 L65.5605395,13.1675676 C65.8941475,13.4558559 65.9231569,13.7585586 65.6475677,14.0756757 C64.5016966,15.3441441 63.0367221,15.9783784 61.2526443,15.9783784 C59.54109,15.9783784 58.1558914,15.4162162 57.0970485,14.2918919 C56.0382056,13.1675676 55.5087841,11.7405405 55.5087841,10.0108108 C55.5087841,8.2954955 56.0345794,6.87207207 57.08617,5.74054054 C58.1377605,4.60900901 59.5120806,4.04324324 61.2091302,4.04324324 C63.0802362,4.04324324 64.5597154,4.74234234 65.6475677,6.14054054 C65.9086522,6.48648649 65.8506334,6.78918919 65.4735113,7.04864865 L64.5597154,7.63243243 Z" id="Path"></path>
                        <path d="M74.7541395,15.7189189 C74.3189986,15.7189189 74.1014281,15.5171171 74.1014281,15.1135135 L74.1014281,14.5081081 C73.3471839,15.4882883 72.2520792,15.9783784 70.8161141,15.9783784 C69.6122243,15.9783784 68.6476619,15.6684685 67.922427,15.0486486 C67.1971921,14.4288288 66.8345747,13.563964 66.8345747,12.4540541 C66.8345747,12.0072072 66.8962196,11.6036036 67.0195096,11.2432432 C67.1427995,10.8828829 67.320482,10.5873874 67.5525572,10.3567568 C67.7846324,10.1261261 68.0239599,9.92792793 68.2705397,9.76216216 C68.5171196,9.5963964 68.8144659,9.45945946 69.1625786,9.35135135 C69.5106914,9.24324324 69.8044115,9.16396396 70.043739,9.11351351 C70.2830665,9.06306306 70.5622819,9.01621622 70.8813853,8.97297297 C72.1868081,8.78558559 72.9990711,8.61261261 73.3181745,8.45405405 C73.7388107,8.25225225 73.9491288,7.94954955 73.9491288,7.54594595 C73.9491288,7.11351351 73.7496892,6.8036036 73.35081,6.61621622 C72.9519309,6.42882883 72.4696497,6.33513514 71.9039665,6.33513514 C70.8886376,6.33513514 69.8878135,6.58018018 68.9014941,7.07027027 C68.4953625,7.27207207 68.1980162,7.18558559 68.0094552,6.81081081 L67.5960713,5.96756757 C67.4075102,5.56396396 67.4945384,5.26846847 67.8571558,5.08108108 C69.1480739,4.38918919 70.5695343,4.04324324 72.1215369,4.04324324 C73.5429973,4.04324324 74.6634852,4.34954955 75.4830006,4.96216216 C76.302516,5.57477477 76.7122737,6.52252252 76.7122737,7.80540541 L76.7122737,15.0702703 C76.7122737,15.5027027 76.4947032,15.7189189 76.0595623,15.7189189 L74.7541395,15.7189189 Z M73.9491288,10.0756757 C73.6445302,10.3063063 72.8105101,10.5369369 71.4470685,10.7675676 C70.8378712,10.8828829 70.3737209,11.045045 70.0546175,11.2540541 C69.7355142,11.4630631 69.5759625,11.8198198 69.5759625,12.3243243 C69.5759625,12.8144144 69.7391404,13.1855856 70.065496,13.4378378 C70.3918517,13.6900901 70.8306188,13.8162162 71.3817974,13.8162162 C72.1070322,13.8162162 72.7162295,13.6108108 73.2093892,13.2 C73.702549,12.7891892 73.9491288,12.1801802 73.9491288,11.372973 L73.9491288,10.0756757 Z" id="Shape"></path>
                        <path d="M79.3649851,15.7189189 C78.9298442,15.7189189 78.7122737,15.5027027 78.7122737,15.0702703 L78.7122737,4.95135135 C78.7122737,4.51891892 78.9298442,4.3027027 79.3649851,4.3027027 L80.8227072,4.3027027 C81.2578481,4.3027027 81.4754186,4.51891892 81.4754186,4.95135135 L81.4754186,5.72972973 C82.2876816,4.60540541 83.4553098,4.04324324 84.978303,4.04324324 C86.1676882,4.04324324 87.1032412,4.42522523 87.784962,5.18918919 C88.4666828,5.95315315 88.8075432,6.95495495 88.8075432,8.19459459 L88.8075432,15.0702703 C88.8075432,15.5027027 88.5899727,15.7189189 88.1548318,15.7189189 L86.6971097,15.7189189 C86.2619688,15.7189189 86.0443983,15.5027027 86.0443983,15.0702703 L86.0443983,8.82162162 C86.0443983,7.27927928 85.3916869,6.50810811 84.0862641,6.50810811 C83.3320199,6.50810811 82.7083179,6.75675676 82.2151582,7.25405405 C81.7219984,7.75135135 81.4754186,8.42522523 81.4754186,9.27567568 L81.4754186,15.0702703 C81.4754186,15.5027027 81.2578481,15.7189189 80.8227072,15.7189189 L79.3649851,15.7189189 Z" id="Path"></path>
                    </g>
                    <g id="Group-4">
                        <path d="M14.0723655,0 L30.4487947,0 C33.5065988,3.26468926e-16 35.9854387,2.47883997 35.9854387,5.53664403 C35.9854387,5.54149141 35.9854324,5.54633879 35.9854196,5.55118615 L35.9435388,21.4965107 C35.9355223,24.5486267 33.4590404,27.0186126 30.4069138,27.0186126 L23.9535914,27.0186126 L23.9535914,27.0186126 L25.4637156,28.6262764 C25.5475984,28.7155771 25.5432062,28.8559701 25.4539055,28.9398528 C25.4127714,28.9784912 25.3584576,29 25.3020223,29 L9.05975009,29 C8.93723095,29 8.83790957,28.9006786 8.83790957,28.7781595 C8.83790957,28.712515 8.86698247,28.6502413 8.91730708,28.6080913 L10.8150472,27.0186126 L10.8150472,27.0186126 L5.16753452,27.0186126 C2.31358401,27.0186126 -5.38670284e-16,24.7050286 0,21.8510781 L0,11.5213761 C-2.70969059e-16,9.30874586 1.50385487,7.37921858 3.64949349,6.83887826 L5.08265081,6.47796348 C6.51890553,6.11626867 7.79312372,5.28503716 8.70290851,4.11630177 L10.5771894,1.70854728 C11.4164012,0.630472017 12.7061581,1.13914665e-15 14.0723655,0 Z" id="Path-2" fill="url(#linearGradient-3)"></path>
                        <path d="M17.5607222,2.24358324 L30.6394628,2.24358324 C32.3547307,2.24358324 33.7452301,3.63408259 33.7452301,5.34935047 L33.7452301,19.3571141 C33.7452301,21.072382 32.3547307,22.4628813 30.6394628,22.4628813 L17.5607222,22.4628813 C15.8454544,22.4628813 14.454955,21.072382 14.454955,19.3571141 L14.454955,5.34935047 C14.454955,3.63408259 15.8454544,2.24358324 17.5607222,2.24358324 Z" id="Rectangle" fill="url(#linearGradient-4)"></path>
                        <rect id="Rectangle" fill="#FFFFFF" opacity="0.659999967" x="17.0027272" y="15.7011098" width="5.82347927" height="1.47049441" rx="0.735247203"></rect>
                        <rect id="Rectangle" fill="#FFFFFF" x="15.9108248" y="23.5657521" width="1.81983727" height="1.83811801" rx="0.909918635"></rect>
                        <rect id="Rectangle" fill="#00C8FF" x="24.0625641" y="15.7011098" width="2.91173963" height="1.47049441" rx="0.735247203"></rect>
                        <path d="M27.0171076,11.8281333 L24.8774501,12.9566772 C24.5853478,13.1107441 24.2236563,12.9988442 24.0695894,12.706742 C24.0085214,12.5909603 23.9871331,12.4583384 24.0087069,12.3292288 L24.4118151,9.91680563 L24.4118151,9.91680563 L22.6666834,8.20240929 C22.4311011,7.9709761 22.4277376,7.59238524 22.6591708,7.35680295 C22.7510564,7.26327003 22.8711375,7.20253092 23.0009281,7.1839361 L25.3947691,6.84097579 L25.3947691,6.84097579 L26.4558044,4.66375479 C26.6004779,4.36688796 26.9584171,4.24351089 27.2552839,4.3881844 C27.3746159,4.44633901 27.4712035,4.54254936 27.5298248,4.66165277 L28.6075604,6.85133606 L28.6075604,6.85133606 L31.0148781,7.21142255 C31.3414874,7.26027676 31.5666523,7.56465003 31.5177981,7.89125928 C31.4985845,8.01970998 31.4380709,8.13841252 31.3454071,8.22941891 L29.6102207,9.9335689 L29.6102207,9.9335689 L30.0266852,12.3365696 C30.083079,12.6619618 29.8650127,12.9714605 29.5396205,13.0278542 C29.4086922,13.0505455 29.2739355,13.0289791 29.156628,12.9665605 L27.0171076,11.8281333 L27.0171076,11.8281333 Z" id="Star" fill="url(#linearGradient-5)" transform="translate(27.002848, 8.553383) rotate(20.000000) translate(-27.002848, -8.553383) "></path>
                        <rect id="Rectangle" fill="#FFFFFF" opacity="0.659999967" x="17.0027272" y="18.4190217" width="2.91173963" height="1.47049441" rx="0.735247203"></rect>
                        <rect id="Rectangle" fill="#FFFFFF" opacity="0.659999967" x="21.1508244" y="18.4190217" width="8.91720262" height="1.47049441" rx="0.735247203"></rect>
                    </g>
                </g>
            </g>
        </g>
    </g>
</svg>