<?xml version="1.0" encoding="UTF-8"?>
<svg width="110px" height="32px" viewBox="0 0 110 32" version="1.1" xmlns="http://www.w3.org/2000/svg" xmlns:xlink="http://www.w3.org/1999/xlink">
    <title>fx logo black cut</title>
    <defs>
        <linearGradient x1="50%" y1="0%" x2="50%" y2="100%" id="linearGradient-1">
            <stop stop-color="#1E1E1E" offset="0%"></stop>
            <stop stop-color="#000000" offset="100%"></stop>
        </linearGradient>
    </defs>
    <g id="fx-logo-black-cut" stroke="none" stroke-width="1" fill="none" fill-rule="evenodd">
        <path d="M40.47,28.915 L40.47,24.683 L44.585,24.683 L44.585,24.244 L40.47,24.244 L40.47,20.572 L44.942,20.572 L44.942,20.128 L40,20.128 L40,28.915 L40.47,28.915 Z M50.165,29 C51.231,29 52.148,28.367 52.434,27.484 L52.452,27.484 L52.452,28.914 L52.88,28.914 L52.88,22.357 L52.422,22.357 L52.422,26.278 C52.422,27.673 51.482,28.574 50.261,28.574 C49.081,28.574 48.301,27.831 48.301,26.54 L48.301,22.357 L47.837,22.357 L47.837,26.613 C47.837,28.081 48.784,29 50.165,29 Z M56.8,28.915 L56.8,25.012 C56.8,23.647 57.663,22.704 58.92,22.704 C60.116,22.704 60.92,23.464 60.92,24.737 L60.92,28.915 L61.384,28.915 L61.384,24.683 C61.384,23.209 60.432,22.271 59.021,22.271 C57.931,22.271 57.086,22.881 56.788,23.8 L56.77,23.8 L56.77,22.357 L56.336,22.357 L56.336,28.915 L56.8,28.915 L56.8,28.915 Z M67.305,29 C68.662,29 69.662,28.178 69.859,26.997 L69.394,26.997 C69.204,27.94 68.4,28.574 67.304,28.574 C65.858,28.574 64.941,27.435 64.941,25.639 C64.941,23.849 65.858,22.704 67.299,22.704 C68.412,22.704 69.216,23.392 69.4,24.329 L69.859,24.329 C69.669,23.173 68.674,22.271 67.299,22.271 C65.584,22.271 64.476,23.587 64.476,25.639 C64.476,27.703 65.584,29 67.305,29 Z M75.184,28.915 L75.184,28.495 C75.166,28.501 74.731,28.507 74.695,28.507 C74.052,28.507 73.767,28.197 73.767,27.411 L73.767,22.771 L75.1,22.771 L75.1,22.357 L73.767,22.357 L73.767,20.67 L73.308,20.67 L73.308,22.357 L72.368,22.357 L72.368,22.771 L73.308,22.771 L73.308,27.423 C73.308,28.507 73.707,28.927 74.636,28.927 C74.707,28.927 75.148,28.921 75.184,28.915 L75.184,28.915 Z M78.555,20.749 C78.6542588,20.7503378 78.7499137,20.7118419 78.8205748,20.6421203 C78.891236,20.5723988 78.931009,20.4772678 78.931,20.378 C78.9381363,20.2403135 78.8687402,20.1099193 78.7505478,20.038933 C78.6323554,19.9679467 78.4846446,19.9679467 78.3664522,20.038933 C78.2482598,20.1099193 78.1788637,20.2403135 78.186,20.378 C78.1857343,20.4763032 78.224599,20.5706713 78.2940163,20.6402762 C78.3634336,20.7098811 78.4576964,20.7490004 78.556,20.749 L78.555,20.749 Z M78.788,28.915 L78.788,22.357 L78.323,22.357 L78.323,28.915 L78.788,28.915 Z M84.827,29 C86.536,29 87.685,27.697 87.685,25.639 C87.685,23.574 86.535,22.271 84.827,22.271 C83.124,22.271 81.975,23.574 81.975,25.639 C81.975,27.697 83.118,29 84.827,29 Z M84.827,28.574 C83.387,28.574 82.439,27.447 82.439,25.639 C82.439,23.824 83.386,22.704 84.827,22.704 C86.267,22.704 87.214,23.824 87.214,25.639 C87.214,27.441 86.268,28.574 84.827,28.574 Z M91.277,28.914 L91.277,25.012 C91.277,23.647 92.14,22.704 93.397,22.704 C94.593,22.704 95.397,23.464 95.397,24.737 L95.397,28.915 L95.861,28.915 L95.861,24.683 C95.861,23.209 94.909,22.271 93.498,22.271 C92.408,22.271 91.563,22.881 91.265,23.8 L91.247,23.8 L91.247,22.357 L90.813,22.357 L90.813,28.915 L91.277,28.915 L91.277,28.914 Z M103.814,28.914 L106.618,24.92 L106.63,24.92 L109.417,28.915 L109.982,28.915 L106.916,24.53 L106.916,24.518 L110,20.128 L109.452,20.128 L106.648,24.135 L106.636,24.135 L103.844,20.128 L103.278,20.128 L106.338,24.506 L106.338,24.518 L103.266,28.915 L103.814,28.915 L103.814,28.914 Z M43.367,15 L43.367,10.797 L47.727,10.797 L47.727,8.602 L43.367,8.602 L43.367,6.032 L48.172,6.032 L48.172,3.726 L40.5,3.726 L40.5,15 L43.367,15 Z M52.297,15 L53.687,12.336 L53.836,12.336 L55.234,15 L58.258,15 L55.618,10.61 L58.25,6.305 L55.258,6.305 L53.968,9.015 L53.82,9.015 L52.547,6.305 L49.398,6.305 L52.016,10.727 L49.414,15 L52.297,15 L52.297,15 Z M64.242,15.305 C67.195,15.305 68.992,13.883 68.992,11.531 C68.992,9.742 67.992,8.734 65.766,8.305 L64.312,8.023 C63.125,7.789 62.625,7.43 62.625,6.813 C62.625,6.063 63.289,5.586 64.297,5.586 C65.305,5.586 66.063,6.141 66.125,6.937 L68.773,6.937 C68.727,4.852 66.898,3.422 64.258,3.422 C61.539,3.422 59.773,4.867 59.773,7.07 C59.773,8.844 60.836,9.969 62.898,10.36 L64.383,10.656 C65.672,10.914 66.164,11.25 66.164,11.875 C66.164,12.617 65.43,13.133 64.359,13.133 C63.172,13.133 62.352,12.609 62.281,11.789 L59.547,11.789 C59.594,13.961 61.391,15.305 64.242,15.305 Z M74.875,15.203 C77.235,15.203 78.711,13.922 78.875,11.843 L76.335,11.843 C76.211,12.656 75.703,13.078 74.875,13.078 C73.805,13.078 73.25,12.266 73.25,10.641 C73.25,9.031 73.797,8.227 74.875,8.227 C75.719,8.227 76.219,8.711 76.335,9.523 L78.875,9.523 C78.703,7.391 77.273,6.102 74.875,6.102 C72.008,6.102 70.477,7.687 70.477,10.641 C70.477,13.609 72.007,15.203 74.875,15.203 Z M82.906,15.133 C84.008,15.133 84.961,14.664 85.352,13.922 L85.5,13.922 L85.5,15 L88.188,15 L88.188,9.07 C88.188,7.195 86.82,6.102 84.422,6.102 C82.07,6.102 80.532,7.148 80.406,8.836 L82.891,8.836 C83.071,8.375 83.539,8.133 84.266,8.133 C85.031,8.133 85.469,8.484 85.469,9.07 L85.469,9.75 L83.57,9.86 C81.328,9.992 80.094,10.914 80.094,12.5 C80.094,14.094 81.234,15.133 82.906,15.133 L82.906,15.133 Z M83.914,13.203 C83.219,13.203 82.758,12.859 82.758,12.305 C82.758,11.781 83.188,11.461 84.008,11.398 L85.468,11.305 L85.468,11.875 C85.468,12.625 84.789,13.203 83.914,13.203 L83.914,13.203 Z M93.047,15 L93.047,10.031 C93.047,9.031 93.68,8.359 94.609,8.359 C95.547,8.359 96.07,8.945 96.07,10 L96.07,15 L98.836,15 L98.836,9.383 C98.836,7.297 97.734,6.102 95.796,6.102 C94.539,6.102 93.508,6.734 93.125,7.719 L92.977,7.719 L92.977,6.305 L90.289,6.305 L90.289,15 L93.047,15 L93.047,15 Z" id="text" fill="#080A32" fill-rule="nonzero"></path>
        <path d="M25,0 C28.8659932,-7.10171439e-16 32,3.13400675 32,7 L32,25 C32,28.8659932 28.8659932,32 25,32 L7,32 C3.13400675,32 4.73447626e-16,28.8659932 0,25 L0,7 C-4.73447626e-16,3.13400675 3.13400675,7.10171439e-16 7,0 L25,0 Z M15.815,4.8 L15.814,4.8 L15.808,4.804 L6.418,10.437 L6.4,10.427 L6.4,21.571 L11.255,24.373 L11.255,13.277 L15.981,16.074 L15.985,16.072 L18.937,19.366 L15.945,27.2 L20.035,24.78 L21.138,21.861 L22.477,23.378 L25.6,21.5 L22.72,17.809 L25.545,10.439 L15.815,4.8 Z M16.684,9.97 L21.647,12.81 L20.812,15.138 L19.898,13.928 L14.871,11.05 L16.684,9.97 Z" id="logo" fill="url(#linearGradient-1)" fill-rule="nonzero"></path>
    </g>
</svg>