<?xml version="1.0" encoding="UTF-8"?>
<svg width="152px" height="30px" viewBox="0 0 152 30" version="1.1" xmlns="http://www.w3.org/2000/svg" xmlns:xlink="http://www.w3.org/1999/xlink">
    <title>logo16</title>
    <defs>
        <path d="M2.87345679,10.1405405 L2.87345679,15.0702703 C2.87345679,15.5027027 2.65740741,15.7189189 2.22530864,15.7189189 L0.648148148,15.7189189 C0.216049383,15.7189189 0,15.5027027 0,15.0702703 L0,0.92972973 C0,0.497297297 0.216049383,0.281081081 0.648148148,0.281081081 L6.5462963,0.281081081 C8.27469136,0.281081081 9.62860082,0.727927928 10.6080247,1.62162162 C11.5874486,2.51531532 12.0771605,3.71171171 12.0771605,5.21081081 C12.0771605,6.72432432 11.5910494,7.92432432 10.6188272,8.81081081 C9.64660494,9.6972973 8.28909465,10.1405405 6.5462963,10.1405405 L2.87345679,10.1405405 Z M6.52469136,7.52432432 C7.3744856,7.52432432 8.02623457,7.32252252 8.47993827,6.91891892 C8.93364198,6.51531532 9.16049383,5.93873874 9.16049383,5.18918919 C9.16049383,4.45405405 8.93364198,3.88828829 8.47993827,3.49189189 C8.02623457,3.0954955 7.3744856,2.8972973 6.52469136,2.8972973 L2.87345679,2.8972973 L2.87345679,7.52432432 L6.52469136,7.52432432 Z" id="path-1"></path>
        <path d="M23.1388889,4.3027027 C23.5709877,4.3027027 23.787037,4.51891892 23.787037,4.95135135 L23.787037,15.0702703 C23.787037,15.5027027 23.5709877,15.7189189 23.1388889,15.7189189 L21.712963,15.7189189 C21.2808642,15.7189189 21.0648148,15.5027027 21.0648148,15.0702703 L21.0648148,14.2918919 C20.2582305,15.4162162 19.0915638,15.9783784 17.5648148,15.9783784 C16.3837449,15.9783784 15.4511317,15.5963964 14.7669753,14.8324324 C14.0828189,14.0684685 13.7407407,13.0666667 13.7407407,11.827027 L13.7407407,4.95135135 C13.7407407,4.51891892 13.9567901,4.3027027 14.3888889,4.3027027 L15.8364198,4.3027027 C16.2685185,4.3027027 16.4845679,4.51891892 16.4845679,4.95135135 L16.4845679,11.1783784 C16.4845679,12.7351351 17.1399177,13.5135135 18.4506173,13.5135135 C19.2139918,13.5135135 19.840535,13.2648649 20.3302469,12.7675676 C20.8199588,12.2702703 21.0648148,11.5963964 21.0648148,10.7459459 L21.0648148,4.95135135 C21.0648148,4.51891892 21.2808642,4.3027027 21.712963,4.3027027 L23.1388889,4.3027027 Z" id="path-2"></path>
        <path d="M27.2006173,15.7189189 C26.7685185,15.7189189 26.5524691,15.5027027 26.5524691,15.0702703 L26.5524691,4.95135135 C26.5524691,4.51891892 26.7685185,4.3027027 27.2006173,4.3027027 L28.6481481,4.3027027 C29.0802469,4.3027027 29.2962963,4.51891892 29.2962963,4.95135135 L29.2962963,5.72972973 C30.1028807,4.60540541 31.2623457,4.04324324 32.7746914,4.04324324 C33.9557613,4.04324324 34.8847737,4.42522523 35.5617284,5.18918919 C36.2386831,5.95315315 36.5771605,6.95495495 36.5771605,8.19459459 L36.5771605,15.0702703 C36.5771605,15.5027027 36.3611111,15.7189189 35.9290123,15.7189189 L34.4814815,15.7189189 C34.0493827,15.7189189 33.8333333,15.5027027 33.8333333,15.0702703 L33.8333333,8.82162162 C33.8333333,7.27927928 33.1851852,6.50810811 31.8888889,6.50810811 C31.1399177,6.50810811 30.5205761,6.75675676 30.0308642,7.25405405 C29.5411523,7.75135135 29.2962963,8.42522523 29.2962963,9.27567568 L29.2962963,15.0702703 C29.2962963,15.5027027 29.0802469,15.7189189 28.6481481,15.7189189 L27.2006173,15.7189189 Z" id="path-3"></path>
        <path d="M47.8981481,15.7189189 C47.4660494,15.7189189 47.25,15.5027027 47.25,15.0702703 L47.25,14.2486486 C46.4578189,15.4018018 45.2839506,15.9783784 43.7283951,15.9783784 C42.2016461,15.9783784 40.9665638,15.4198198 40.0231481,14.3027027 C39.0797325,13.1855856 38.6080247,11.7621622 38.6080247,10.0324324 C38.6080247,8.3027027 39.0797325,6.87207207 40.0231481,5.74054054 C40.9665638,4.60900901 42.2016461,4.04324324 43.7283951,4.04324324 C45.2695473,4.04324324 46.4434156,4.61981982 47.25,5.77297297 L47.25,0.92972973 C47.25,0.497297297 47.4660494,0.281081081 47.8981481,0.281081081 L49.345679,0.281081081 C49.7777778,0.281081081 49.9938272,0.497297297 49.9938272,0.92972973 L49.9938272,15.0702703 C49.9938272,15.5027027 49.7777778,15.7189189 49.345679,15.7189189 L47.8981481,15.7189189 Z M47.25,10.0108108 C47.25,8.98738739 46.9907407,8.13693694 46.4722222,7.45945946 C45.9537037,6.78198198 45.2335391,6.44324324 44.3117284,6.44324324 C43.404321,6.44324324 42.7057613,6.78198198 42.2160494,7.45945946 C41.7263374,8.13693694 41.4814815,8.98738739 41.4814815,10.0108108 C41.4814815,11.0486486 41.7227366,11.9027027 42.2052469,12.572973 C42.6877572,13.2432432 43.3899177,13.5783784 44.3117284,13.5783784 C45.2479424,13.5783784 45.9717078,13.2432432 46.4830247,12.572973 C46.9943416,11.9027027 47.25,11.0486486 47.25,10.0108108 Z" id="path-4"></path>
        <path d="M55.654321,1.55675676 C55.654321,1.97477477 55.5030864,2.32792793 55.2006173,2.61621622 C54.8981481,2.9045045 54.5380658,3.04864865 54.1203704,3.04864865 C53.7026749,3.04864865 53.3461934,2.9045045 53.0509259,2.61621622 C52.7556584,2.32792793 52.6080247,1.97477477 52.6080247,1.55675676 C52.6080247,1.12432432 52.7556584,0.756756757 53.0509259,0.454054054 C53.3461934,0.151351351 53.7026749,0 54.1203704,0 C54.5380658,0 54.8981481,0.151351351 55.2006173,0.454054054 C55.5030864,0.756756757 55.654321,1.12432432 55.654321,1.55675676 Z M53.4074074,15.7189189 C52.9753086,15.7189189 52.7592593,15.5027027 52.7592593,15.0702703 L52.7592593,4.95135135 C52.7592593,4.51891892 52.9753086,4.3027027 53.4074074,4.3027027 L54.8549383,4.3027027 C55.287037,4.3027027 55.5030864,4.51891892 55.5030864,4.95135135 L55.5030864,15.0702703 C55.5030864,15.5027027 55.287037,15.7189189 54.8549383,15.7189189 L53.4074074,15.7189189 Z" id="path-5"></path>
        <path d="M63.1728395,2.44324324 C62.3950617,2.44324324 61.7469136,2.60900901 61.2283951,2.94054054 C60.7098765,3.27207207 60.4506173,3.73333333 60.4506173,4.32432432 C60.4506173,4.77117117 60.6378601,5.13153153 61.0123457,5.40540541 C61.3868313,5.67927928 61.9341564,5.90990991 62.654321,6.0972973 C62.8415638,6.15495495 63.1764403,6.24144144 63.6589506,6.35675676 C64.1414609,6.47207207 64.5231481,6.56576577 64.8040123,6.63783784 C65.0848765,6.70990991 65.4557613,6.82162162 65.9166667,6.97297297 C66.377572,7.12432432 66.7520576,7.27567568 67.0401235,7.42702703 C67.3281893,7.57837838 67.6414609,7.77657658 67.9799383,8.02162162 C68.3184156,8.26666667 68.5848765,8.52612613 68.779321,8.8 C68.9737654,9.07387387 69.1394033,9.40900901 69.2762346,9.80540541 C69.4130658,10.2018018 69.4814815,10.6306306 69.4814815,11.0918919 C69.4814815,12.5189189 68.941358,13.6936937 67.8611111,14.6162162 C66.7808642,15.5387387 65.31893,16 63.4753086,16 C62.1934156,16 61.0375514,15.7657658 60.007716,15.2972973 C58.9778807,14.8288288 58.1460905,14.1765766 57.5123457,13.3405405 C57.2530864,12.9945946 57.3106996,12.6918919 57.6851852,12.4324324 L58.8302469,11.6540541 C59.1759259,11.4234234 59.4783951,11.4810811 59.7376543,11.827027 C60.6450617,12.9801802 61.9269547,13.5567568 63.5833333,13.5567568 C64.5195473,13.5567568 65.2649177,13.3585586 65.8194444,12.9621622 C66.3739712,12.5657658 66.6512346,12.036036 66.6512346,11.372973 C66.6512346,11.0846847 66.5828189,10.8288288 66.4459877,10.6054054 C66.3091564,10.381982 66.1615226,10.2018018 66.0030864,10.0648649 C65.8446502,9.92792793 65.5781893,9.79459459 65.2037037,9.66486486 C64.8292181,9.53513514 64.526749,9.44504505 64.2962963,9.39459459 C64.0658436,9.34414414 63.6985597,9.26126126 63.1944444,9.14594595 C62.3878601,8.98738739 61.7001029,8.81441441 61.1311728,8.62702703 C60.5622428,8.43963964 59.9825103,8.17297297 59.3919753,7.82702703 C58.8014403,7.48108108 58.3513374,7.03063063 58.0416667,6.47567568 C57.7319959,5.92072072 57.5771605,5.26846847 57.5771605,4.51891892 C57.5771605,3.10630631 58.1100823,2 59.1759259,1.2 C60.2417695,0.4 61.595679,0 63.2376543,0 C65.5709877,0 67.4074074,0.771171171 68.7469136,2.31351351 C69.0349794,2.64504505 68.9845679,2.94774775 68.595679,3.22162162 L67.537037,3.95675676 C67.2057613,4.18738739 66.9176955,4.15855856 66.6728395,3.87027027 C65.7942387,2.91891892 64.627572,2.44324324 63.1728395,2.44324324 Z" id="path-6"></path>
        <path d="M79.8734568,7.63243243 C79.5421811,7.86306306 79.2397119,7.80540541 78.9660494,7.45945946 C78.3755144,6.78198198 77.6337449,6.44324324 76.7407407,6.44324324 C75.8333333,6.44324324 75.1131687,6.77117117 74.5802469,7.42702703 C74.0473251,8.08288288 73.7808642,8.93693694 73.7808642,9.98918919 C73.7808642,11.0702703 74.0509259,11.9387387 74.5910494,12.5945946 C75.1311728,13.2504505 75.8621399,13.5783784 76.7839506,13.5783784 C77.6769547,13.5783784 78.4475309,13.2396396 79.095679,12.5621622 C79.4125514,12.245045 79.7150206,12.2162162 80.0030864,12.4756757 L80.867284,13.1675676 C81.1985597,13.4558559 81.2273663,13.7585586 80.9537037,14.0756757 C79.8158436,15.3441441 78.3611111,15.9783784 76.5895062,15.9783784 C74.8899177,15.9783784 73.5144033,15.4162162 72.462963,14.2918919 C71.4115226,13.1675676 70.8858025,11.7405405 70.8858025,10.0108108 C70.8858025,8.2954955 71.4079218,6.87207207 72.4521605,5.74054054 C73.4963992,4.60900901 74.8611111,4.04324324 76.5462963,4.04324324 C78.404321,4.04324324 79.8734568,4.74234234 80.9537037,6.14054054 C81.212963,6.48648649 81.1553498,6.78918919 80.7808642,7.04864865 L79.8734568,7.63243243 Z" id="path-7"></path>
        <path d="M90.3518519,15.7189189 C89.9197531,15.7189189 89.7037037,15.5171171 89.7037037,15.1135135 L89.7037037,14.5081081 C88.9547325,15.4882883 87.867284,15.9783784 86.441358,15.9783784 C85.2458848,15.9783784 84.2880658,15.6684685 83.5679012,15.0486486 C82.8477366,14.4288288 82.4876543,13.563964 82.4876543,12.4540541 C82.4876543,12.0072072 82.5488683,11.6036036 82.6712963,11.2432432 C82.7937243,10.8828829 82.9701646,10.5873874 83.2006173,10.3567568 C83.43107,10.1261261 83.6687243,9.92792793 83.9135802,9.76216216 C84.1584362,9.5963964 84.4537037,9.45945946 84.7993827,9.35135135 C85.1450617,9.24324324 85.4367284,9.16396396 85.6743827,9.11351351 C85.912037,9.06306306 86.1893004,9.01621622 86.5061728,8.97297297 C87.8024691,8.78558559 88.6090535,8.61261261 88.9259259,8.45405405 C89.3436214,8.25225225 89.5524691,7.94954955 89.5524691,7.54594595 C89.5524691,7.11351351 89.3544239,6.8036036 88.9583333,6.61621622 C88.5622428,6.42882883 88.0833333,6.33513514 87.5216049,6.33513514 C86.5133745,6.33513514 85.5195473,6.58018018 84.5401235,7.07027027 C84.1368313,7.27207207 83.8415638,7.18558559 83.654321,6.81081081 L83.2438272,5.96756757 C83.0565844,5.56396396 83.1430041,5.26846847 83.5030864,5.08108108 C84.7849794,4.38918919 86.1965021,4.04324324 87.7376543,4.04324324 C89.149177,4.04324324 90.2618313,4.34954955 91.0756173,4.96216216 C91.8894033,5.57477477 92.2962963,6.52252252 92.2962963,7.80540541 L92.2962963,15.0702703 C92.2962963,15.5027027 92.0802469,15.7189189 91.6481481,15.7189189 L90.3518519,15.7189189 Z M89.5524691,10.0756757 C89.25,10.3063063 88.4218107,10.5369369 87.0679012,10.7675676 C86.462963,10.8828829 86.0020576,11.045045 85.6851852,11.2540541 C85.3683128,11.4630631 85.2098765,11.8198198 85.2098765,12.3243243 C85.2098765,12.8144144 85.3719136,13.1855856 85.6959877,13.4378378 C86.0200617,13.6900901 86.4557613,13.8162162 87.0030864,13.8162162 C87.723251,13.8162162 88.3281893,13.6108108 88.8179012,13.2 C89.3076132,12.7891892 89.5524691,12.1801802 89.5524691,11.372973 L89.5524691,10.0756757 Z" id="path-8"></path>
        <path d="M95.6234568,15.7189189 C95.191358,15.7189189 94.9753086,15.5027027 94.9753086,15.0702703 L94.9753086,4.95135135 C94.9753086,4.51891892 95.191358,4.3027027 95.6234568,4.3027027 L97.0709877,4.3027027 C97.5030864,4.3027027 97.7191358,4.51891892 97.7191358,4.95135135 L97.7191358,5.72972973 C98.5257202,4.60540541 99.6851852,4.04324324 101.197531,4.04324324 C102.378601,4.04324324 103.307613,4.42522523 103.984568,5.18918919 C104.661523,5.95315315 105,6.95495495 105,8.19459459 L105,15.0702703 C105,15.5027027 104.783951,15.7189189 104.351852,15.7189189 L102.904321,15.7189189 C102.472222,15.7189189 102.256173,15.5027027 102.256173,15.0702703 L102.256173,8.82162162 C102.256173,7.27927928 101.608025,6.50810811 100.311728,6.50810811 C99.5627572,6.50810811 98.9434156,6.75675676 98.4537037,7.25405405 C97.9639918,7.75135135 97.7191358,8.42522523 97.7191358,9.27567568 L97.7191358,15.0702703 C97.7191358,15.5027027 97.5030864,15.7189189 97.0709877,15.7189189 L95.6234568,15.7189189 Z" id="path-9"></path>
        <linearGradient x1="96.6581212%" y1="71.952992%" x2="34.6122173%" y2="17.6464567%" id="linearGradient-10">
            <stop stop-color="#BDC3EA" offset="0%"></stop>
            <stop stop-color="#E7E2EE" offset="100%"></stop>
        </linearGradient>
        <linearGradient x1="4.35913739%" y1="100%" x2="95.6408626%" y2="0%" id="linearGradient-11">
            <stop stop-color="#1D97C7" offset="0%"></stop>
            <stop stop-color="#5178F0" offset="52.7845228%"></stop>
            <stop stop-color="#875FF3" offset="100%"></stop>
        </linearGradient>
        <linearGradient x1="35.1977394%" y1="92.1489395%" x2="88.961578%" y2="18.9256628%" id="linearGradient-12">
            <stop stop-color="#00B7FF" offset="0%"></stop>
            <stop stop-color="#FFFFFF" offset="52.7845228%"></stop>
            <stop stop-color="#5B1EFF" offset="100%"></stop>
            <stop stop-color="#5B1EFF" offset="100%"></stop>
        </linearGradient>
    </defs>
    <g id="" stroke="none" stroke-width="1" fill="none" fill-rule="evenodd">
        <g id="" transform="translate(-120, -15)" fill-rule="nonzero">
            <g id="logo16" transform="translate(120, 15.5)">
                <g id="PundiScan" transform="translate(47, 7)">
                    <g id="">
                        <use fill="#4C50A5" xlink:href="#path-1"></use>
                        <use fill="#080A32" xlink:href="#path-1"></use>
                    </g>
                    <g id="">
                        <use fill="#4C50A5" xlink:href="#path-2"></use>
                        <use fill="#080A32" xlink:href="#path-2"></use>
                    </g>
                    <g id="">
                        <use fill="#4C50A5" xlink:href="#path-3"></use>
                        <use fill="#080A32" xlink:href="#path-3"></use>
                    </g>
                    <g id="">
                        <use fill="#4C50A5" xlink:href="#path-4"></use>
                        <use fill="#080A32" xlink:href="#path-4"></use>
                    </g>
                    <g id="">
                        <use fill="#4C50A5" xlink:href="#path-5"></use>
                        <use fill="#080A32" xlink:href="#path-5"></use>
                    </g>
                    <g id="">
                        <use fill="#4C50A5" xlink:href="#path-6"></use>
                        <use fill="#080A32" xlink:href="#path-6"></use>
                    </g>
                    <g id="">
                        <use fill="#4C50A5" xlink:href="#path-7"></use>
                        <use fill="#080A32" xlink:href="#path-7"></use>
                    </g>
                    <g id="">
                        <use fill="#4C50A5" xlink:href="#path-8"></use>
                        <use fill="#080A32" xlink:href="#path-8"></use>
                    </g>
                    <g id="">
                        <use fill="#4C50A5" xlink:href="#path-9"></use>
                        <use fill="#080A32" xlink:href="#path-9"></use>
                    </g>
                </g>
                <g id="Group-4">
                    <path d="M14.0924558,0 L30.4922647,0 C33.5544342,0 36.036813,2.47883997 36.036813,5.53664403 C36.036813,5.54149141 36.036813,5.54633879 36.036813,5.55118615 L35.9948533,21.4965107 C35.9868253,24.5486267 33.5068079,27.0186126 30.450324,27.0186126 L23.9877885,27.0186126 L23.9877885,27.0186126 L25.5000686,28.6262764 C25.5840712,28.7155771 25.5796727,28.8559701 25.4902445,28.9398528 C25.4490517,28.9784912 25.3946604,29 25.3381445,29 L9.07268416,29 C8.94999011,29 8.85052693,28.9006786 8.85052693,28.7781595 C8.85052693,28.712515 8.87964134,28.6502413 8.93003779,28.6080913 L10.8304872,27.0186126 L10.8304872,27.0186126 L5.17491191,27.0186126 C2.31688698,27.0186126 0,24.7050286 0,21.8510781 L0,11.5213761 C0,9.30874586 1.50600184,7.37921858 3.65470366,6.83887826 L5.08990701,6.47796348 C6.52821219,6.11626867 7.8042495,5.28503716 8.71533314,4.11630177 L10.5922898,1.70854728 C11.4326997,0.630472017 12.7242979,0 14.0924558,0 Z" id="Path-2" fill="url(#linearGradient-10)"></path>
                    <path d="M17.5857926,2.24358324 L30.683205,2.24358324 C32.4009216,2.24358324 33.7934062,3.63408259 33.7934062,5.34935047 L33.7934062,19.3571141 C33.7934062,21.072382 32.4009216,22.4628813 30.683205,22.4628813 L17.5857926,22.4628813 C15.868076,22.4628813 14.4755915,21.072382 14.4755915,19.3571141 L14.4755915,5.34935047 C14.4755915,3.63408259 15.868076,2.24358324 17.5857926,2.24358324 Z" id="Rectangle" fill="url(#linearGradient-11)"></path>
                    <rect id="Rectangle" fill="#FFFFFF" opacity="0.659999967" x="17.027001" y="15.7011098" width="5.83179311" height="1.47049441" rx="0.735247203"></rect>
                    <rect id="Rectangle" fill="#FFFFFF" x="15.9335397" y="23.5657521" width="1.82243534" height="1.83811801" rx="0.909918635"></rect>
                    <rect id="Rectangle" fill="#00C8FF" x="24.0969168" y="15.7011098" width="2.91589655" height="1.47049441" rx="0.735247203"></rect>
                    <path d="M27.0101048,11.8221806 L24.8672322,12.9518947 C24.574691,13.1061214 24.2125948,12.9943687 24.0584677,12.7022885 C23.9973759,12.5865154 23.9760215,12.4538812 23.9976817,12.3247401 L24.402405,9.91172914 L24.402405,9.91172914 L22.6558599,8.19784722 C22.4200868,7.96648347 22.4168928,7.58783093 22.6487259,7.35210311 C22.7407702,7.25851241 22.8610306,7.19770805 22.9909933,7.17905058 L25.3880094,6.83493461 L25.3880094,6.83493461 L26.4513813,4.65686317 C26.5963734,4.35988038 26.9548204,4.23631847 27.2519951,4.38087993 C27.3714509,4.4389895 27.4681161,4.5351716 27.5267566,4.654268 L28.6048462,6.84382247 L28.6048462,6.84382247 L31.0150334,7.20286454 C31.342032,7.25157705 31.5673411,7.55589783 31.5182755,7.88258404 C31.4989787,8.01106501 31.4383343,8.12981514 31.345512,8.22087925 L29.6073562,9.92611 L29.6073562,9.92611 L30.0232431,12.3293209 C30.0795587,12.6547416 29.8610755,12.964392 29.5352472,13.0209444 C29.4041435,13.0436996 29.2692268,13.0221914 29.1518,12.9598162 L27.0101048,11.8221806 L27.0101048,11.8221806 Z" id="Star" fill="url(#linearGradient-12)" transform="translate(27.001, 8.6751) rotate(20) translate(-27.001, -8.6751)"></path>
                    <rect id="Rectangle" fill="#FFFFFF" opacity="0.659999967" x="17.027001" y="18.4190217" width="2.91589655" height="1.47049441" rx="0.735247203"></rect>
                    <rect id="Rectangle" fill="#FFFFFF" opacity="0.659999967" x="21.1810202" y="18.4190217" width="8.92993319" height="1.47049441" rx="0.735247203"></rect>
                </g>
            </g>
        </g>
    </g>
</svg>