<?xml version="1.0" encoding="UTF-8"?>
<svg width="132px" height="28px" viewBox="0 0 132 28" version="1.1" xmlns="http://www.w3.org/2000/svg" xmlns:xlink="http://www.w3.org/1999/xlink">
    <title>Group 4@2x</title>
    <defs>
        <linearGradient x1="96.6581212%" y1="70.5235713%" x2="34.6122173%" y2="19.7530864%" id="linearGradient-1">
            <stop stop-color="#BDC3EA" offset="0%"></stop>
            <stop stop-color="#E0D9EA" offset="100%"></stop>
        </linearGradient>
        <linearGradient x1="2.67094178%" y1="100%" x2="97.3290582%" y2="0%" id="linearGradient-2">
            <stop stop-color="#1D97C7" offset="0%"></stop>
            <stop stop-color="#5178F0" offset="52.7845228%"></stop>
            <stop stop-color="#875FF3" offset="100%"></stop>
        </linearGradient>
        <linearGradient x1="22.1022586%" y1="84.4471763%" x2="92.8809371%" y2="15.1874694%" id="linearGradient-3">
            <stop stop-color="#00B7FF" offset="0%"></stop>
            <stop stop-color="#FFFFFF" offset="52.7845228%"></stop>
            <stop stop-color="#5B1EFF" offset="100%"></stop>
        </linearGradient>
    </defs>
    <g id="StarScan" stroke="none" stroke-width="1" fill="none" fill-rule="evenodd">
        <g id="Web_" transform="translate(-360.000000, -127.000000)">
            <g id="_" transform="translate(0.000000, 111.000000)">
                <g id="Group-4" transform="translate(360.000000, 16.000000)">
                    <g id="StarScan" transform="translate(46.000000, 5.750000)" fill="#080A32" fill-rule="nonzero" stroke="#080A32" stroke-width="0.5">
                        <path d="M5.25520259,2.51959842 C4.55285354,2.51959842 3.96756267,2.69054436 3.49932997,3.03243625 C3.03109727,3.37432815 2.79698092,3.85000382 2.79698092,4.45946328 C2.79698092,4.92027409 2.96606495,5.29189571 3.30423301,5.57432815 C3.64240107,5.85676058 4.1366467,6.09459842 4.78696989,6.28784166 C4.95605392,6.34730112 5.2584542,6.43649031 5.69417074,6.55540923 C6.12988728,6.67432815 6.47455857,6.77094977 6.72818461,6.84527409 C6.98181066,6.91959842 7.3167271,7.03480112 7.73293394,7.1908822 C8.14914079,7.34696328 8.48730884,7.50304436 8.74743812,7.65912544 C9.0075674,7.81520652 9.29045799,8.01959842 9.59610988,8.27230112 C9.90176178,8.52500382 10.1423814,8.79257139 10.3179686,9.07500382 C10.4935559,9.35743625 10.6431302,9.70304436 10.7666916,10.1118281 C10.890253,10.5206119 10.9520337,10.9628417 10.9520337,11.4385173 C10.9520337,12.910139 10.4642913,14.1216254 9.48880656,15.0729768 C8.51332177,16.0243281 7.19316569,16.5 5.52833833,16.5 C4.37076305,16.5 3.32699432,16.2584498 2.39703216,15.7753417 C1.46707,15.2922336 0.715946713,14.6195984 0.143662305,13.7574363 C-0.0904540438,13.4006795 -0.0384281886,13.0885173 0.299739871,12.8209498 L1.33375374,12.0182471 C1.64590888,11.7804092 1.91904462,11.8398687 2.15316096,12.1966254 C2.97256819,13.3858146 4.13014347,13.9804092 5.6258868,13.9804092 C6.47130695,13.9804092 7.14439146,13.7760173 7.64514031,13.3672336 C8.14588917,12.9584498 8.3962636,12.412166 8.3962636,11.7283822 C8.3962636,11.4310849 8.33448289,11.1672336 8.21092149,10.9368281 C8.08736008,10.7064227 7.95404383,10.5206119 7.81097273,10.3793957 C7.66790162,10.2381795 7.42728204,10.1006795 7.08911398,9.96689571 C6.75094592,9.83311193 6.47781018,9.74020652 6.26970676,9.6881795 C6.06160334,9.63615247 5.72993851,9.5506795 5.27471228,9.43176058 C4.54635031,9.26824706 3.92529166,9.08986869 3.41153634,8.89662544 C2.89778102,8.7033822 2.37427085,8.4283822 1.84100583,8.07162544 C1.30774082,7.71486869 0.901288822,7.25034166 0.62164985,6.67804436 C0.342010878,6.10574706 0.202191392,5.43311193 0.202191392,4.66013896 C0.202191392,3.2033822 0.683430553,2.06250382 1.64590888,1.23750382 C2.6083872,0.412503821 3.8309948,0 5.31373167,0 C7.42077881,0 8.84970386,0.505409226 10.059305,2.09594977 C10.3194343,2.43784166 10.2739116,2.75000382 9.92273712,3.03243625 L8.96676203,3.79054436 C8.66761336,4.0283822 8.40748409,3.99865247 8.1863742,3.70135517 C7.39297991,2.72027409 6.56885543,2.51959842 5.25520259,2.51959842 Z" id="Path"></path>
                        <path d="M20.0926683,15.1705612 C20.19672,15.6016423 20.0861651,15.8840747 19.7610035,16.0178585 C19.2667579,16.2408315 17.7760918,16.4777065 17.1127621,16.4777065 C15.0447344,16.4777065 14.0107205,15.2736525 14.0107205,12.8655444 L14.0107205,6.71149031 L14.0107205,4.43716598 L14.0107205,0.958787605 C14.0107205,0.512841659 14.2058174,0.289868686 14.5960114,0.289868686 L15.903161,0.289868686 C16.2933549,0.289868686 16.4884518,0.512841659 16.4884518,0.958787605 L16.4884518,4.43716598 L16.4884518,6.71149031 L16.4884518,12.4195984 C16.4884518,13.5047336 16.8916522,14.0473011 17.698053,14.0473011 C17.9061564,14.0473011 19.0001254,13.8921828 19.1562029,13.8327234 C19.5333904,13.7138045 19.7675067,13.8475882 19.858552,14.2340747 L20.0926683,15.1705612 Z" id="Path"></path>
                        <rect id="Rectangle" transform="translate(15.683013, 6.000004) rotate(-30.000000) translate(-15.683013, -6.000004) " x="11.1830127" y="4.75000382" width="9" height="2.5" rx="0.5"></rect>
                        <path d="M27.916798,16.210139 C27.5266041,16.210139 27.3315072,16.0020308 27.3315072,15.5858146 L27.3315072,14.9614903 C26.6551711,15.9723011 25.673183,16.4777065 24.3855431,16.4777065 C23.3060066,16.4777065 22.4410768,16.1581119 21.7907536,15.5189227 C21.1404304,14.8797336 20.8152688,13.9878417 20.8152688,12.8432471 C20.8152688,12.3824363 20.8705463,11.96622 20.9811012,11.5945984 C21.0916562,11.2229768 21.2509853,10.9182471 21.4590888,10.6804092 C21.6671922,10.4425714 21.8817988,10.2381795 22.1029087,10.0672336 C22.3240186,9.8962876 22.5906511,9.75507139 22.9028062,9.6435849 C23.2149614,9.53209842 23.4783423,9.45034166 23.6929489,9.39831463 C23.9075556,9.3462876 24.15793,9.29797679 24.4440722,9.2533822 C25.6146539,9.06013896 26.3430159,8.88176058 26.6291581,8.71824706 C27.0063456,8.51013896 27.1949393,8.19797679 27.1949393,7.78176058 C27.1949393,7.33581463 27.0161004,7.01622004 26.6584227,6.82297679 C26.3007449,6.62973355 25.86828,6.53311193 25.3610279,6.53311193 C24.4505754,6.53311193 22.9873483,7.15343097 22.1029087,7.65883637 C21.7387277,7.86694448 21.4720952,7.77775529 21.3030112,7.3912688 L20.932327,6.52167421 C20.7632429,6.10545799 20.8412817,5.80072826 21.1664433,5.60748502 C22.3240186,4.89397151 24.1644332,4.16959842 25.5561249,4.16959842 C26.8307583,4.16959842 27.8355076,4.48547679 28.5703729,5.11723355 C29.3052381,5.74899031 29.6726707,6.72635517 29.6726707,8.04932815 L29.6726707,15.54122 C29.6726707,15.987166 29.4775737,16.210139 29.0873798,16.210139 L27.916798,16.210139 Z M27.1949393,10.3905444 C26.9218036,10.6283822 26.1739319,10.86622 24.9513243,11.1040579 C24.4050528,11.2229768 23.988846,11.3902065 23.7027038,11.6057471 C23.4165616,11.8212876 23.2734905,12.189193 23.2734905,12.7094633 C23.2734905,13.2148687 23.4198132,13.597639 23.7124586,13.8577741 C24.0051041,14.1179092 24.3985496,14.2479768 24.8927952,14.2479768 C25.5431184,14.2479768 26.0893899,14.0361525 26.5316096,13.6125038 C26.9738294,13.1888552 27.1949393,12.5608146 27.1949393,11.7283822 L27.1949393,10.3905444 Z" id="Shape"></path>
                        <path d="M38.9549503,7.21622004 C38.889918,7.60270652 38.6558017,7.75135517 38.2526013,7.66216598 C38.0575043,7.61757139 37.8494009,7.59527409 37.628291,7.59527409 C36.8869226,7.59527409 36.282122,7.92601733 35.8138893,8.58750382 C35.3456566,9.24899031 35.1115403,10.7040579 35.1115403,11.9527065 L35.1115403,15.54122 C35.1115403,15.987166 34.9164433,16.210139 34.5262494,16.210139 L33.2190998,16.210139 C32.8289059,16.210139 32.6338089,15.987166 32.6338089,15.54122 L32.6338089,5.0141805 C32.6338089,4.56823455 32.8289059,4.34526158 33.2190998,4.34526158 L34.5262494,4.34526158 C34.9164433,4.34526158 35.1115403,4.56823455 35.1115403,5.0141805 L35.1115403,6.74797679 C35.4236954,6.19797679 35.8268958,5.7631795 36.3211414,5.4435849 C36.815387,5.12399031 37.3486521,4.96419301 37.9209365,4.96419301 C38.2070787,4.96419301 38.4997241,5.01622004 38.7988728,5.12027409 C39.1110279,5.22432815 39.2345893,5.49932815 39.169557,5.94527409 L38.9549503,7.21622004 Z" id="Path"></path>
                        <path d="M45.5052026,2.51959842 C44.8028535,2.51959842 44.2175627,2.69054436 43.74933,3.03243625 C43.2810973,3.37432815 43.0469809,3.85000382 43.0469809,4.45946328 C43.0469809,4.92027409 43.216065,5.29189571 43.554233,5.57432815 C43.8924011,5.85676058 44.3866467,6.09459842 45.0369699,6.28784166 C45.2060539,6.34730112 45.5084542,6.43649031 45.9441707,6.55540923 C46.3798873,6.67432815 46.7245586,6.77094977 46.9781846,6.84527409 C47.2318107,6.91959842 47.5667271,7.03480112 47.9829339,7.1908822 C48.3991408,7.34696328 48.7373088,7.50304436 48.9974381,7.65912544 C49.2575674,7.81520652 49.540458,8.01959842 49.8461099,8.27230112 C50.1517618,8.52500382 50.3923814,8.79257139 50.5679686,9.07500382 C50.7435559,9.35743625 50.8931302,9.70304436 51.0166916,10.1118281 C51.140253,10.5206119 51.2020337,10.9628417 51.2020337,11.4385173 C51.2020337,12.910139 50.7142913,14.1216254 49.7388066,15.0729768 C48.7633218,16.0243281 47.4431657,16.5 45.7783383,16.5 C44.620763,16.5 43.5769943,16.2584498 42.6470322,15.7753417 C41.71707,15.2922336 40.9659467,14.6195984 40.3936623,13.7574363 C40.159546,13.4006795 40.2115718,13.0885173 40.5497399,12.8209498 L41.5837537,12.0182471 C41.8959089,11.7804092 42.1690446,11.8398687 42.403161,12.1966254 C43.2225682,13.3858146 44.3801435,13.9804092 45.8758868,13.9804092 C46.721307,13.9804092 47.3943915,13.7760173 47.8951403,13.3672336 C48.3958892,12.9584498 48.6462636,12.412166 48.6462636,11.7283822 C48.6462636,11.4310849 48.5844829,11.1672336 48.4609215,10.9368281 C48.3373601,10.7064227 48.2040438,10.5206119 48.0609727,10.3793957 C47.9179016,10.2381795 47.677282,10.1006795 47.339114,9.96689571 C47.0009459,9.83311193 46.7278102,9.74020652 46.5197068,9.6881795 C46.3116033,9.63615247 45.9799385,9.5506795 45.5247123,9.43176058 C44.7963503,9.26824706 44.1752917,9.08986869 43.6615363,8.89662544 C43.147781,8.7033822 42.6242708,8.4283822 42.0910058,8.07162544 C41.5577408,7.71486869 41.1512888,7.25034166 40.8716499,6.67804436 C40.5920109,6.10574706 40.4521914,5.43311193 40.4521914,4.66013896 C40.4521914,3.2033822 40.9334306,2.06250382 41.8959089,1.23750382 C42.8583872,0.412503821 44.0809948,0 45.5637317,0 C47.6707788,0 49.0997039,0.505409226 50.309305,2.09594977 C50.5694343,2.43784166 50.5239116,2.75000382 50.1727371,3.03243625 L49.216762,3.79054436 C48.9176134,4.0283822 48.6574841,3.99865247 48.4363742,3.70135517 C47.6429799,2.72027409 46.8188554,2.51959842 45.5052026,2.51959842 Z" id="Path"></path>
                        <path d="M61.2263519,7.87094977 C60.9272032,8.1087876 60.6540675,8.04932815 60.4069447,7.69257139 C59.8736796,6.99392274 59.2038468,6.64459842 58.397446,6.64459842 C57.5780388,6.64459842 56.9277156,6.98277409 56.4464764,7.65912544 C55.9652373,8.33547679 55.7246177,9.21622004 55.7246177,10.3013552 C55.7246177,11.41622 55.9684889,12.3118281 56.4562313,12.9881795 C56.9439737,13.6645308 57.6040517,14.0027065 58.4364654,14.0027065 C59.2428662,14.0027065 59.938712,13.6533822 60.5240028,12.9547336 C60.810145,12.6277065 61.0832808,12.5979768 61.3434101,12.8655444 L62.1237979,13.5790579 C62.4229466,13.8763552 62.4489595,14.1885173 62.2018367,14.5155444 C61.174326,15.8236525 59.8606732,16.4777065 58.2608781,16.4777065 C56.7261154,16.4777065 55.4839981,15.8979768 54.5345262,14.7385173 C53.5850544,13.5790579 53.1103185,12.1074363 53.1103185,10.3236525 C53.1103185,8.55473355 53.5818028,7.08682815 54.5247714,5.91993625 C55.46774,4.75304436 56.7001025,4.16959842 58.2218587,4.16959842 C59.8996926,4.16959842 61.2263519,4.89054436 62.2018367,6.33243625 C62.435953,6.68919301 62.3839272,7.00135517 62.0457591,7.26892274 L61.2263519,7.87094977 Z" id="Path"></path>
                        <path d="M71.3515292,16.2905444 C70.9613353,16.2905444 70.7662384,16.0824363 70.7662384,15.66622 L70.7662384,15.0418957 C70.0899023,16.0527065 69.1079142,16.5581119 67.8202743,16.5581119 C66.7407378,16.5581119 65.875808,16.2385173 65.2254848,15.5993281 C64.5751616,14.960139 64.25,14.0682471 64.25,12.9236525 C64.25,12.4628417 64.3052775,12.0466254 64.4158324,11.6750038 C64.5263874,11.3033822 64.6857165,10.9986525 64.89382,10.7608146 C65.1019234,10.5229768 65.31653,10.3185849 65.5376399,10.147639 C65.7587498,9.97669301 66.0253823,9.83547679 66.3375374,9.72399031 C66.6496926,9.61250382 66.9130735,9.53074706 67.1276801,9.47872004 C67.3422868,9.42669301 67.5926612,9.3783822 67.8788034,9.3337876 C69.0493851,9.14054436 69.7777471,8.96216598 70.0638893,8.79865247 C70.4410768,8.59054436 70.6296705,8.2783822 70.6296705,7.86216598 C70.6296705,7.41622004 70.4508316,7.09662544 70.0931539,6.9033822 C69.7354761,6.71013896 69.3030112,6.61351733 68.7957591,6.61351733 C67.8853066,6.61351733 66.4220795,7.23383637 65.5376399,7.73924178 C65.1734589,7.94734988 64.9068264,7.8581607 64.7377424,7.47167421 L64.3670582,6.60207961 C64.1979741,6.1858634 64.2760129,5.88113367 64.6011745,5.68789042 C65.7587498,4.97437691 67.5991644,4.25000382 68.9908561,4.25000382 C70.2654895,4.25000382 71.2702388,4.5658822 72.0051041,5.19763896 C72.7399693,5.82939571 73.1074019,6.80676058 73.1074019,8.12973355 L73.1074019,15.6216254 C73.1074019,16.0675714 72.9123049,16.2905444 72.522111,16.2905444 L71.3515292,16.2905444 Z M70.6296705,10.4709498 C70.3565348,10.7087876 69.6086631,10.9466254 68.3860555,11.1844633 C67.839784,11.3033822 67.4235772,11.4706119 67.137435,11.6861525 C66.8512928,11.901693 66.7082217,12.2695984 66.7082217,12.7898687 C66.7082217,13.2952741 66.8545444,13.6780444 67.1471898,13.9381795 C67.4398353,14.1983146 67.8332808,14.3283822 68.3275264,14.3283822 C68.9778496,14.3283822 69.5241211,14.1165579 69.9663408,13.6929092 C70.4085606,13.2692606 70.6296705,12.64122 70.6296705,11.8087876 L70.6296705,10.4709498 Z" id="Shape"></path>
                        <path d="M76.5327921,16.210139 C76.1425981,16.210139 75.9475012,15.987166 75.9475012,15.54122 L75.9475012,4.8560849 C75.9475012,4.41013896 76.1425981,4.18716598 76.5327921,4.18716598 L77.8399417,4.18716598 C78.2301356,4.18716598 78.4252325,4.41013896 78.4252325,4.8560849 L78.4252325,5.9087876 C79.1535945,4.74932815 80.2006149,4.16959842 81.5662936,4.16959842 C82.6328236,4.16959842 83.4717405,4.56351733 84.0830443,5.35135517 C84.6943481,6.13919301 85,7.17230112 85,8.4506795 L85,15.54122 C85,15.987166 84.804903,16.210139 84.4147091,16.210139 L83.1075595,16.210139 C82.7173656,16.210139 82.5222686,15.987166 82.5222686,15.54122 L82.5222686,9.09730112 C82.5222686,7.50676058 81.9369778,6.71149031 80.766396,6.71149031 C80.0900599,6.71149031 79.530782,6.96790923 79.0885622,7.48074706 C78.6463424,7.9935849 78.4252325,8.68851733 78.4252325,9.56554436 L78.4252325,15.54122 C78.4252325,15.987166 78.2301356,16.210139 77.8399417,16.210139 L76.5327921,16.210139 Z" id="Path"></path>
                    </g>
                    <g>
                        <path d="M14.0165132,0 L30.5258454,0 C33.5410505,2.11065107e-15 35.9853572,2.4443067 35.9853572,5.45951181 C35.9853572,5.4643862 35.9853507,5.4692606 35.9853376,5.47413497 L35.9436188,21.049656 C35.935558,24.0591412 33.4936226,26.4945447 30.4841266,26.4945447 L23.9535914,26.4945447 L23.9535914,26.4945447 L25.8147649,28 L8.44939204,28 L10.8150472,26.4945447 L5.09554436,26.4945447 C2.28135292,26.4945447 3.44639054e-16,24.2131918 0,21.3990003 L0,11.3665853 C5.25476704e-16,9.15871033 1.50600938,7.23555514 3.64949349,6.7062276 L5.12849482,6.34099227 C6.53565027,5.99349908 7.78784515,5.18917513 8.68901949,4.05395586 L10.5957165,1.65206863 C11.4242457,0.608361192 12.683927,-1.53156473e-15 14.0165132,0 Z" id="Path-2" fill="url(#linearGradient-1)"></path>
                        <path d="M17.3666946,2.20006546 L30.8334904,2.20006546 C32.4415998,2.20006546 33.7452301,3.5036957 33.7452301,5.11180509 L33.7452301,19.1154393 C33.7452301,20.7235487 32.4415998,22.0271789 30.8334904,22.0271789 L17.3666946,22.0271789 C15.7585852,22.0271789 14.454955,20.7235487 14.454955,19.1154393 L14.454955,5.11180509 C14.454955,3.5036957 15.7585852,2.20006546 17.3666946,2.20006546 Z" id="Rectangle" fill="url(#linearGradient-2)"></path>
                        <rect id="Rectangle" fill="#FFFFFF" opacity="0.659999967" x="17.0027272" y="15.1778124" width="5.82347927" height="1.44197189" rx="0.720985943"></rect>
                        <rect id="Rectangle" fill="#FFFFFF" x="15.9108248" y="23.1086578" width="1.81983727" height="1.80246486" rx="0.901232429"></rect>
                        <rect id="Rectangle" fill="#00C8FF" x="24.2820763" y="15.1778124" width="2.91173963" height="1.44197189" rx="0.720985943"></rect>
                        <path d="M26.9962822,11.6085799 L24.8476907,12.7346727 C24.5592619,12.8858404 24.2028986,12.7745683 24.051731,12.4861395 C23.9912664,12.3707727 23.9707038,12.2386318 23.9932536,12.1103471 L24.4088162,9.74622987 L24.4088162,9.74622987 L22.6839959,8.07755602 C22.4499544,7.85113302 22.4437784,7.47785277 22.6702014,7.24381124 C22.7606255,7.15034456 22.8794135,7.08939469 23.0080744,7.07044932 L25.4087144,6.7169539 L25.4087144,6.7169539 L26.4914438,4.54933012 C26.636959,4.25800876 26.991085,4.13980951 27.2824064,4.28532472 C27.3973583,4.34274326 27.490407,4.43614098 27.5473947,4.55130707 L28.6141514,6.70710841 L28.6141514,6.70710841 L31.0019908,7.04435788 C31.3244328,7.08989838 31.5489059,7.38820718 31.5033654,7.71064923 C31.485017,7.84056168 31.4238631,7.96064344 31.3295838,8.05188664 L29.5953223,9.73029953 L29.5953223,9.73029953 L29.9981912,12.1032674 C30.0526969,12.4243155 29.8366216,12.7287621 29.5155734,12.7832679 C29.389017,12.8047539 29.258906,12.7843521 29.1450001,12.7251609 L26.9962822,11.6085799 L26.9962822,11.6085799 Z" id="Star" fill="url(#linearGradient-3)" transform="translate(27.009833, 8.389815) rotate(20.000000) translate(-27.009833, -8.389815) "></path>
                        <rect id="Rectangle" fill="#FFFFFF" opacity="0.659999967" x="17.0027272" y="18.0617562" width="2.91173963" height="1.44197189" rx="0.720985943"></rect>
                        <rect id="Rectangle" fill="#FFFFFF" opacity="0.659999967" x="21.3703366" y="18.0617562" width="8.91720262" height="1.44197189" rx="0.720985943"></rect>
                    </g>
                </g>
            </g>
        </g>
    </g>
</svg>