<svg xmlns="http://www.w3.org/2000/svg" width="48" height="48" viewBox="0 0 48 48">
  <g fill="none" transform="translate(10 10)">
    <rect width="28" height="28" fill="#000" opacity="0"/>
    <path fill="#0552DC" d="M16.58125,11.725 C15.79375,11.725 15.1375,12.425 15.1375,13.3 C15.1375,14.175 15.79375,14.875 16.58125,14.875 C17.36875,14.875 18.025,14.175 18.025,13.3 C18.025,12.425 17.36875,11.725 16.58125,11.725 L16.58125,11.725 Z M11.4625,11.725 C10.675,11.725 10.01875,12.425 10.01875,13.3 C10.01875,14.175 10.675,14.875 11.4625,14.875 C12.25,14.875 12.90625,14.175 12.90625,13.3 C12.90625,12.425 12.25,11.725 11.4625,11.725 L11.4625,11.725 Z M23.3625,0 L4.6375,0 C3.01875,0 1.75,1.26875 1.75,2.8875 L1.75,21.83125 C1.75,23.40625 3.01875,24.71875 4.6375,24.71875 L20.51875,24.71875 L19.775,22.1375 L21.56875,23.8 L23.275,25.375 L26.25,28 L26.25,2.8875 C26.25,1.26875 24.98125,0 23.3625,0 Z M17.98125,18.2875 C17.98125,18.2875 17.45625,17.675 17.0625,17.15 C18.9,16.625 19.6,15.4875 19.6,15.4875 C19.03125,15.88125 18.4625,16.14375 17.98125,16.31875 C17.28125,16.625 16.625,16.8 15.96875,16.93125 C14.6125,17.19375 13.3875,17.10625 12.3375,16.93125 C11.55,16.75625 10.85,16.5375 10.28125,16.31875 C9.975,16.1875 9.625,16.05625 9.275,15.8375 C9.23125,15.79375 9.1875,15.79375 9.14375,15.75 C9.1,15.75 9.1,15.70625 9.1,15.70625 C8.8375,15.575 8.70625,15.4875 8.70625,15.4875 C8.70625,15.4875 9.3625,16.625 11.15625,17.15 C10.71875,17.675 10.2375,18.33125 10.2375,18.33125 C7.13125,18.24375 5.95,16.1875 5.95,16.1875 C5.95,11.68125 7.9625,8.00625 7.9625,8.00625 C9.975,6.475 11.9,6.51875 11.9,6.51875 L12.03125,6.69375 C9.49375,7.4375 8.3125,8.53125 8.3125,8.53125 C8.3125,8.53125 8.61875,8.35625 9.14375,8.1375 C10.63125,7.48125 11.8125,7.30625 12.3375,7.2625 C12.425,7.2625 12.5125,7.21875 12.55625,7.21875 C13.43125,7.0875 14.39375,7.0875 15.4,7.175 C16.7125,7.35 18.15625,7.7 19.6,8.53125 C19.6,8.53125 18.50625,7.48125 16.1,6.7375 L16.275,6.51875 C16.275,6.51875 18.2,6.475 20.2125,8.00625 C20.2125,8.00625 22.225,11.68125 22.225,16.1875 C22.26875,16.14375 21.0875,18.2 17.98125,18.2875 L17.98125,18.2875 Z"/>
  </g>
</svg>
