<svg xmlns="http://www.w3.org/2000/svg" width="48" height="48" viewBox="0 0 48 48">
  <g fill="none" transform="translate(10 10)">
    <rect width="28" height="28" fill="#000" opacity="0"/>
    <path fill="#0552DC" d="M13.4076923,16.2076923 C13.7307693,16.5307693 14.2153846,16.5307693 14.5384615,16.2076923 L26.7076923,4.9 C26.9230769,4.46923077 26.8692308,3.76923077 26.0076923,3.76923077 L1.93846155,3.82307693 C1.29230771,3.82307693 0.75384616,4.41538461 1.23846155,4.95384616 L13.4076923,16.2076923 Z M26.9230769,9.31538461 C26.9230769,8.77692307 26.2769231,8.45384616 25.8461538,8.83076923 L16.3153846,17.6076923 C15.6692308,18.2 14.8615385,18.5230769 14,18.5230769 C13.1384615,18.5230769 12.3307692,18.2 11.6846154,17.6615385 L2.20769232,8.83076923 C1.77692309,8.45384616 1.13076925,8.72307691 1.13076923,9.31538461 C1.07692307,9.15384616 1.07692307,21.5384615 1.07692307,21.5384615 C1.07692307,22.7230769 2.04615384,23.6923077 3.23076923,23.6923077 L24.7692308,23.6923077 C25.9538462,23.6923077 26.9230769,22.7230769 26.9230769,21.5384615 L26.9230769,9.31538461 Z"/>
  </g>
</svg>
