<svg xmlns="http://www.w3.org/2000/svg" width="48" height="48" viewBox="0 0 48 48">
  <g fill="none" transform="translate(10 10)">
    <rect width="28" height="28" fill="#000" opacity="0"/>
    <path fill="#0552DC" d="M14,0 C6.26947855,0 0.00388393359,6.42421727 0.00388393359,14.3518507 C0.00388393359,20.690925 4.01377118,26.0700989 9.57606098,27.9677389 C10.2758668,28.0995357 10.5324623,27.6563253 10.5324623,27.2760975 C10.5324623,26.9355254 10.5196325,26.0327759 10.5126344,24.8349416 C6.61938145,25.7027008 5.79710964,22.9104757 5.79710964,22.9104757 C5.16145271,21.2542686 4.24354077,20.813391 4.24354074,20.8133909 C2.97222685,19.9223049 4.34034721,19.9398 4.34034721,19.9398 C5.74462418,20.0412719 6.48291932,21.418723 6.48291932,21.418723 C7.73207269,23.6114478 9.75917682,22.9792899 10.5569554,22.6107255 C10.6840868,21.6834828 11.0468195,21.0513249 11.4457088,20.6920913 C8.33740469,20.3305249 5.07047792,19.1000331 5.07047795,13.6007258 C5.07047795,12.0343271 5.61516014,10.7525162 6.51091156,9.7494612 C6.36745137,9.38672853 5.88691805,7.92763344 6.64737369,5.95184836 C6.64737369,5.95184836 7.82304745,5.56695516 10.4963056,7.4226069 C11.6136622,7.10419525 12.8103301,6.94557262 14.0011663,6.93974088 C15.1896699,6.94557259 16.3875041,7.10419525 17.5048607,7.4226069 C20.1757862,5.56578884 21.3491273,5.95184836 21.3491273,5.95184836 C22.113082,7.92763341 21.633715,9.3867285 21.4890884,9.7494612 C22.3871726,10.7525162 22.9271894,12.0343272 22.9271894,13.6007258 C22.9271894,19.1128628 19.6555972,20.3270259 16.5379624,20.6815942 C17.0394899,21.1248045 17.4873656,21.9995618 17.4873656,23.3396899 C17.4873656,25.2583241 17.4698705,26.804895 17.4698704,27.2760975 C17.4698704,27.6598244 17.7218005,28.1065338 18.4321034,27.9654063 C23.9897279,26.0642672 27.9961161,20.6885923 27.9961161,14.3518507 C27.9961161,6.42421727 21.7293551,0 14,0"/>
  </g>
</svg>
