<?xml version="1.0" standalone="no"?>
<!DOCTYPE svg PUBLIC "-//W3C//DTD SVG 20010904//EN"
 "http://www.w3.org/TR/2001/REC-SVG-20010904/DTD/svg10.dtd">
<svg version="1.0" xmlns="http://www.w3.org/2000/svg"
 width="700.000000pt" height="700.000000pt" viewBox="0 0 700.000000 700.000000"
 preserveAspectRatio="xMidYMid meet">
<metadata>
Created by potrace 1.14, written by Peter Selinger 2001-2017
</metadata>
<g transform="translate(0.000000,700.000000) scale(0.100000,-0.100000)"
fill="#000000" stroke="none">
<path d="M2737 6223 c-1 -1 -29 -3 -62 -4 -188 -8 -382 -90 -523 -221 -50 -46
-89 -94 -303 -363 -250 -316 -329 -395 -502 -500 -125 -76 -225 -112 -492
-181 -200 -51 -269 -73 -342 -110 -51 -26 -100 -54 -110 -63 -10 -10 -26 -22
-36 -27 -33 -19 -149 -139 -192 -199 -78 -110 -124 -217 -156 -360 -16 -74
-18 -160 -16 -1185 l2 -1105 23 -85 c45 -164 148 -344 263 -459 115 -115 312
-230 441 -257 162 -34 121 -32 788 -33 l584 -1 -179 -115 c-99 -63 -202 -128
-230 -144 -27 -17 -43 -31 -35 -31 65 -4 3342 -2 3345 2 3 2 -73 67 -169 144
-95 76 -173 140 -172 141 1 1 308 3 682 3 722 1 751 3 904 52 79 25 205 86
280 136 76 50 228 204 279 282 55 85 104 188 130 275 47 156 50 194 51 845 4
1912 4 2600 -2 2640 -13 87 -20 116 -51 205 -71 209 -199 382 -382 515 -155
112 -337 182 -517 197 -60 5 -3297 11 -3301 6z"/>
</g>
</svg>
