<?xml version="1.0" encoding="UTF-8"?>
<svg width="48px" height="48px" viewBox="0 0 48 48" version="1.1" xmlns="http://www.w3.org/2000/svg" xmlns:xlink="http://www.w3.org/1999/xlink">
    <!-- Generator: Sketch 64 (93537) - https://sketch.com -->
    <title>icons/social/Forum</title>
    <desc>Created with Sketch.</desc>
    <g id="icons/social/Forum" stroke="none" stroke-width="1" fill="none" fill-rule="evenodd">
        <g id="forum_24px_rounded" transform="translate(10.000000, 10.000000)" fill="#080A32" fill-rule="nonzero">
            <path d="M25.1606163,5.59973802 L23.7634107,5.59973802 L23.7634107,16.7773827 C23.7634107,17.5458458 23.1346682,18.1745883 22.3662051,18.1745883 L5.59973802,18.1745883 L5.59973802,19.5717939 C5.59973802,21.1087201 6.85722305,22.3662051 8.39414919,22.3662051 L22.3662051,22.3662051 L27.9550275,27.9550275 L27.9550275,8.39414919 C27.9550275,6.85722305 26.6975424,5.59973802 25.1606163,5.59973802 L25.1606163,5.59973802 Z M20.9689995,12.585766 L20.9689995,2.80532686 C20.9689995,1.26840072 19.7115145,0.0109156577 18.1745883,0.0109156577 L2.80532686,0.0109156577 C1.26840072,0.0109156577 0.0109156577,1.26840069 0.0109156577,2.80532686 L0.0109156577,20.9689995 L5.59973802,15.3801772 L18.1745883,15.3801772 C19.7115145,15.3801772 20.9689995,14.1226921 20.9689995,12.585766 Z" id=""></path>
        </g>
    </g>
</svg>