<svg xmlns="http://www.w3.org/2000/svg" width="48" height="48" viewBox="0 0 48 48">
  <g fill="none" transform="translate(8 8)">
    <rect width="32" height="32" fill="#000" opacity="0"/>
    <path fill="#080A32" d="M29.3333333,8.6 C28.6442377,9.51874223 27.8112927,10.3201704 26.8666667,10.9733333 L26.8666667,11.7066667 C26.8742348,16.0650376 25.1324978,20.2441503 22.0319178,23.3071323 C18.9313379,26.3701143 14.7312876,28.0607381 10.3733333,28 C7.85390565,28.0084123 5.36674005,27.4333979 3.10666666,26.32 C2.98480375,26.2668156 2.90620366,26.1462955 2.90666666,26.0133333 L2.90666666,25.8666667 C2.90666666,25.7747249 2.94319036,25.6865489 3.00820298,25.6215363 C3.0732156,25.5565237 3.16139162,25.52 3.25333334,25.52 C5.72987053,25.438417 8.11805653,24.5801626 10.08,23.0666667 C7.83839121,23.0215486 5.82151405,21.6942464 4.89333334,19.6533333 C4.84645003,19.5418574 4.86104793,19.4140066 4.93185341,19.3159682 C5.00265888,19.2179299 5.11943678,19.1638757 5.24,19.1733333 C5.92127474,19.2417819 6.60935659,19.1784059 7.26666666,18.9866667 C4.79211606,18.4732378 2.93276875,16.4198717 2.66666666,13.9066667 C2.65720902,13.7861034 2.71126316,13.6693255 2.80930152,13.5985201 C2.90733988,13.5277146 3.03519069,13.5131167 3.14666666,13.56 C3.81072835,13.8528785 4.5275804,14.0071378 5.25333334,14.0133333 C3.08504092,12.5908516 2.1484819,9.88523664 2.97333334,7.42666666 C3.05847749,7.18776386 3.26303567,7.01127835 3.51183701,6.9620649 C3.76063835,6.91285145 4.01698188,6.99816958 4.18666666,7.18666666 C7.11264265,10.2993039 11.1329805,12.154109 15.4,12.36 C15.2907021,11.9240721 15.2369427,11.4760772 15.24,11.0266667 C15.2799085,8.670171 16.7386548,6.57095805 18.9333097,5.71179889 C21.1279645,4.85263973 23.6241838,5.40357055 25.2533333,7.10666666 C26.3638548,6.89520949 27.4374525,6.5223701 28.44,6 C28.513437,5.95417253 28.606563,5.95417253 28.68,6 C28.7258275,6.07343701 28.7258275,6.16656299 28.68,6.24 C28.1944007,7.35147151 27.3740449,8.28369393 26.3333333,8.90666666 C27.2446692,8.80103253 28.1399894,8.58615567 29,8.26666666 C29.072415,8.21740011 29.167585,8.21740011 29.24,8.26666666 C29.3006544,8.29440754 29.3460124,8.34745419 29.3639959,8.41168114 C29.3819795,8.47590808 29.370763,8.54479558 29.3333333,8.6 L29.3333333,8.6 Z"/>
  </g>
</svg>
