<svg xmlns="http://www.w3.org/2000/svg" width="48" height="48" viewBox="0 0 48 48">
  <g fill="none" transform="translate(8 8)">
    <rect width="32" height="32" fill="#000" opacity="0"/>
    <path fill="#080A32" d="M27.525,7.70714284 L29.7142857,5.60357144 L29.7142857,5.14285716 L22.1321428,5.14285716 L16.7285714,18.6571428 L10.5821428,5.14285716 L2.63214284,5.14285716 L2.63214284,5.60357144 L5.18928572,8.69642856 C5.43928572,8.925 5.56785716,9.26071428 5.53571428,9.59642856 L5.53571428,21.75 C5.61428572,22.1892857 5.475,22.6357143 5.16785716,22.9535714 L2.28571428,26.4642857 L2.28571428,26.9178572 L10.45,26.9178572 L10.45,26.4571428 L7.57142856,22.9571428 C7.25879964,22.6397412 7.11219148,22.1946335 7.175,21.7535714 L7.175,11.2392857 L14.3428572,26.925 L15.175,26.925 L21.3392857,11.2392857 L21.3392857,23.7357143 C21.3392857,24.0642857 21.3392857,24.1321428 21.125,24.35 L18.9071428,26.5035714 L18.9071428,26.9642857 L29.6642857,26.9642857 L29.6642857,26.5035714 L27.525,24.4 C27.3392857,24.2571428 27.2428572,24.0178572 27.2821428,23.7857143 L27.2821428,8.32142856 C27.24447,8.08764055 27.3376437,7.85196585 27.525,7.70714284 L27.525,7.70714284 Z"/>
  </g>
</svg>
