<?xml version="1.0" encoding="UTF-8"?>
<svg width="24px" height="24px" viewBox="0 0 24 24" version="1.1" xmlns="http://www.w3.org/2000/svg" xmlns:xlink="http://www.w3.org/1999/xlink">
    <title>mobile-home-nav-icon-close@2x</title>
    <defs>
        <rect id="path-1" x="0" y="0" width="375" height="50"></rect>
        <filter x="-0.1%" y="-0.5%" width="100.1%" height="102.0%" filterUnits="objectBoundingBox" id="filter-2">
            <feOffset dx="0" dy="0.5" in="SourceAlpha" result="shadowOffsetOuter1"></feOffset>
            <feComposite in="shadowOffsetOuter1" in2="SourceAlpha" operator="out" result="shadowOffsetOuter1"></feComposite>
            <feColorMatrix values="0 0 0 0 0.031372549   0 0 0 0 0.0392156863   0 0 0 0 0.196078431  0 0 0 0.1 0" type="matrix" in="shadowOffsetOuter1"></feColorMatrix>
        </filter>
    </defs>
    <g id="fx_web2021_fxExplorer_v1.1" stroke="none" stroke-width="1" fill="none" fill-rule="evenodd">
        <g id="切图" transform="translate(-2425.000000, -83.000000)">
            <g id="头部/导航/通用" transform="translate(2090.000000, 70.000000)">
                <g>
                    <g id="nav-bg">
                        <use fill="black" fill-opacity="1" filter="url(#filter-2)" xlink:href="#path-1"></use>
                        <use fill-opacity="0.678403628" fill="#FFFFFF" fill-rule="evenodd" xlink:href="#path-1"></use>
                    </g>
                    <g id="Group" transform="translate(334.000000, 12.000000)" fill="#080A32">
                        <path d="M13,4 C13.8284271,4 14.5,4.67157288 14.5,5.5 L14.5,11.499 L20.5,11.5 C21.3284271,11.5 22,12.1715729 22,13 C22,13.8284271 21.3284271,14.5 20.5,14.5 L14.499,14.499 L14.5,20.5 C14.5,21.3284271 13.8284271,22 13,22 C12.1715729,22 11.5,21.3284271 11.5,20.5 L11.499,14.499 L5.5,14.5 C4.67157288,14.5 4,13.8284271 4,13 C4,12.1715729 4.67157288,11.5 5.5,11.5 L11.5,11.499 L11.5,5.5 C11.5,4.67157288 12.1715729,4 13,4 Z" id="Combined-Shape" transform="translate(13.000000, 13.000000) rotate(-315.000000) translate(-13.000000, -13.000000) "></path>
                    </g>
                </g>
            </g>
        </g>
    </g>
</svg>