<?xml version="1.0" encoding="UTF-8"?>
<svg width="16px" height="16px" viewBox="0 0 16 16" version="1.1" xmlns="http://www.w3.org/2000/svg" xmlns:xlink="http://www.w3.org/1999/xlink">
    <title>web-nav-icon-transactions-hover@1x</title>
    <defs>
        <linearGradient x1="0%" y1="100%" x2="100%" y2="0%" id="linearGradient-1">
            <stop stop-color="#1D97C7" offset="0%"></stop>
            <stop stop-color="#5178F0" offset="52.7845228%"></stop>
            <stop stop-color="#875FF3" offset="100%"></stop>
        </linearGradient>
        <path d="M9.05,8.30937469 C9.103125,8.30937469 9.1546875,8.32656219 9.1984375,8.35624969 L11.946875,10.2984372 C12.0640625,10.3812497 12.090625,10.5421872 12.009375,10.6578122 C11.99375,10.6796872 11.975,10.6999997 11.953125,10.7156247 L9.203125,12.7499997 C9.0890625,12.8343747 8.928125,12.8109372 8.84375,12.6968747 C8.8109375,12.6531247 8.79375,12.5984372 8.79375,12.5437497 L8.79375,11.2343747 L6.546875,11.2343747 C4.9453125,11.2437497 4.0765625,10.4515622 3.9375,8.85937469 C4.0765625,9.00468719 4.684375,9.86406219 6.546875,9.86406219 L7.01695093,9.86331219 C7.97872222,9.86006219 8.57166667,9.84624969 8.79375,9.82187469 L8.79375,8.56562469 C8.79375,8.42343719 8.909375,8.30937469 9.05,8.30937469 Z M7.33125,3.37187469 C7.3640625,3.41562469 7.38125,3.47031219 7.38125,3.52499969 L7.38125,4.83437469 L9.628125,4.83437469 C11.2296875,4.82499969 12.0984375,5.61718719 12.2375,7.20937469 C12.0984375,7.06093719 11.490625,6.20156219 9.6296875,6.20156219 C8.3890625,6.20156219 7.6390625,6.21562469 7.3828125,6.24374969 L7.3828125,7.49999969 C7.3828125,7.64218719 7.2671875,7.75624969 7.1265625,7.75624969 C7.0734375,7.75624969 7.021875,7.73906219 6.978125,7.70937469 L4.228125,5.76874969 C4.1125,5.68749969 4.084375,5.52656219 4.1671875,5.41093719 C4.1828125,5.38906219 4.2015625,5.36874969 4.2234375,5.35312469 L6.971875,3.31874969 C7.0859375,3.23437469 7.246875,3.25781219 7.33125,3.37187469 Z" id="path-2"></path>
        <filter x="-24.1%" y="-21.0%" width="148.2%" height="142.0%" filterUnits="objectBoundingBox" id="filter-3">
            <feGaussianBlur stdDeviation="1" in="SourceAlpha" result="shadowBlurInner1"></feGaussianBlur>
            <feOffset dx="2" dy="2" in="shadowBlurInner1" result="shadowOffsetInner1"></feOffset>
            <feComposite in="shadowOffsetInner1" in2="SourceAlpha" operator="arithmetic" k2="-1" k3="1" result="shadowInnerInner1"></feComposite>
            <feColorMatrix values="0 0 0 0 1   0 0 0 0 1   0 0 0 0 1  0 0 0 1 0" type="matrix" in="shadowInnerInner1"></feColorMatrix>
        </filter>
    </defs>
    <g id="_" stroke="none" stroke-width="1" fill="none" fill-rule="evenodd">
        <g id="Web___loding" transform="translate(-990.000000, -22.000000)" fill-rule="nonzero">
            <g id="">
                <g id="" transform="translate(990.000000, 18.000000)">
                    <g id="web-nav-icon-transactions-hover" transform="translate(0.000000, 4.000000)">
                        <rect id="Rectangle" fill="#000000" opacity="0" x="0" y="0" width="16" height="16"></rect>
                        <path d="M8.0875,1.39375 C11.75625,1.39375 14.728125,4.3671875 14.728125,8.034375 C14.728125,11.7015625 11.7546875,14.675 8.0875,14.675 C4.4203125,14.675 1.446875,11.7015625 1.446875,8.034375 C1.446875,4.3671875 4.4203125,1.39375 8.0875,1.39375 Z M9.05,8.30937469 C8.909375,8.30937469 8.79375,8.42343719 8.79375,8.56562469 L8.79375,8.56562469 L8.79375,9.82187469 C8.57166667,9.84624969 7.97872222,9.86006219 7.01695093,9.86331219 L7.01695093,9.86331219 L6.546875,9.86406219 C4.684375,9.86406219 4.0765625,9.00468719 3.9375,8.85937469 C4.0765625,10.4515622 4.9453125,11.2437497 6.546875,11.2343747 L6.546875,11.2343747 L8.79375,11.2343747 L8.79375,12.5437497 C8.79375,12.5984372 8.8109375,12.6531247 8.84375,12.6968747 C8.928125,12.8109372 9.0890625,12.8343747 9.203125,12.7499997 L9.203125,12.7499997 L11.953125,10.7156247 C11.975,10.6999997 11.99375,10.6796872 12.009375,10.6578122 C12.090625,10.5421872 12.0640625,10.3812497 11.946875,10.2984372 L11.946875,10.2984372 L9.1984375,8.35624969 C9.1546875,8.32656219 9.103125,8.30937469 9.05,8.30937469 Z M7.33125,3.37187469 C7.246875,3.25781219 7.0859375,3.23437469 6.971875,3.31874969 L6.971875,3.31874969 L4.2234375,5.35312469 C4.2015625,5.36874969 4.1828125,5.38906219 4.1671875,5.41093719 C4.084375,5.52656219 4.1125,5.68749969 4.228125,5.76874969 L4.228125,5.76874969 L6.978125,7.70937469 C7.021875,7.73906219 7.0734375,7.75624969 7.1265625,7.75624969 C7.2671875,7.75624969 7.3828125,7.64218719 7.3828125,7.49999969 L7.3828125,7.49999969 L7.3828125,6.24374969 C7.6390625,6.21562469 8.3890625,6.20156219 9.6296875,6.20156219 C11.490625,6.20156219 12.0984375,7.06093719 12.2375,7.20937469 C12.0984375,5.61718719 11.2296875,4.82499969 9.628125,4.83437469 L9.628125,4.83437469 L7.38125,4.83437469 L7.38125,3.52499969 C7.38125,3.47031219 7.3640625,3.41562469 7.33125,3.37187469 Z" id="Combined-Shape" fill="url(#linearGradient-1)"></path>
                        <path d="M9.05,8.30937469 C9.103125,8.30937469 9.1546875,8.32656219 9.1984375,8.35624969 L11.946875,10.2984372 C12.0640625,10.3812497 12.090625,10.5421872 12.009375,10.6578122 C11.99375,10.6796872 11.975,10.6999997 11.953125,10.7156247 L9.203125,12.7499997 C9.0890625,12.8343747 8.928125,12.8109372 8.84375,12.6968747 C8.8109375,12.6531247 8.79375,12.5984372 8.79375,12.5437497 L8.79375,11.2343747 L6.546875,11.2343747 C4.9453125,11.2437497 4.0765625,10.4515622 3.9375,8.85937469 C4.0765625,9.00468719 4.684375,9.86406219 6.546875,9.86406219 L7.01695093,9.86331219 C7.97872222,9.86006219 8.57166667,9.84624969 8.79375,9.82187469 L8.79375,8.56562469 C8.79375,8.42343719 8.909375,8.30937469 9.05,8.30937469 Z M7.33125,3.37187469 C7.3640625,3.41562469 7.38125,3.47031219 7.38125,3.52499969 L7.38125,4.83437469 L9.628125,4.83437469 C11.2296875,4.82499969 12.0984375,5.61718719 12.2375,7.20937469 C12.0984375,7.06093719 11.490625,6.20156219 9.6296875,6.20156219 C8.3890625,6.20156219 7.6390625,6.21562469 7.3828125,6.24374969 L7.3828125,7.49999969 C7.3828125,7.64218719 7.2671875,7.75624969 7.1265625,7.75624969 C7.0734375,7.75624969 7.021875,7.73906219 6.978125,7.70937469 L4.228125,5.76874969 C4.1125,5.68749969 4.084375,5.52656219 4.1671875,5.41093719 C4.1828125,5.38906219 4.2015625,5.36874969 4.2234375,5.35312469 L6.971875,3.31874969 C7.0859375,3.23437469 7.246875,3.25781219 7.33125,3.37187469 Z" id="Combined-Shape" stroke="#FFFFFF" stroke-width="1.4"></path>
                        <g id="Combined-Shape" opacity="0.501422997">
                            <use fill="#0552DC" xlink:href="#path-2"></use>
                            <use fill="black" fill-opacity="1" filter="url(#filter-3)" xlink:href="#path-2"></use>
                        </g>
                    </g>
                </g>
            </g>
        </g>
    </g>
</svg>