<svg xmlns="http://www.w3.org/2000/svg" width="48" height="48" viewBox="0 0 48 48">
  <g fill="none" transform="translate(8 8)">
    <rect width="32" height="32" fill="#000" opacity="0"/>
    <path fill="#080A32" d="M29.415625,9.253125 C29.09375,8.046875 28.14375,7.096875 26.940625,6.775 C24.75625,6.1875 16,6.1875 16,6.1875 C16,6.1875 7.24375,6.1875 5.059375,6.771875 C3.853125,7.09375 2.90625,8.04375 2.584375,9.25 C2,11.4375 2,16 2,16 C2,16 2,20.5625 2.584375,22.746875 C2.90625,23.953125 3.85625,24.903125 5.059375,25.225 C7.24375,25.8125 16,25.8125 16,25.8125 C16,25.8125 24.75625,25.8125 26.940625,25.225 C28.146875,24.903125 29.09375,23.953125 29.415625,22.746875 C30,20.5625 30,16 30,16 C30,16 30,11.4375 29.415625,9.253125 Z M13.21875,20.1875 L13.21875,11.8125 L20.46875,15.96875 L13.21875,20.1875 Z"/>
  </g>
</svg>
